<svg width="261" height="206" viewBox="0 0 261 206" fill="none" xmlns="http://www.w3.org/2000/svg">
<g clip-path="url(#clip0_1:2)">
<path d="M178.531 76.8156C177.843 76.8156 177.203 76.7176 176.612 76.5216C176.033 76.3255 175.52 75.9886 175.074 75.5108C174.627 75.0207 174.277 74.3407 174.024 73.4708C173.783 72.5886 173.662 71.4675 173.662 70.1075C173.662 68.7475 173.783 67.6326 174.024 66.7626C174.277 65.8927 174.627 65.2189 175.074 64.741C175.52 64.2509 176.033 63.9079 176.612 63.7118C177.203 63.5158 177.843 63.4178 178.531 63.4178C179.218 63.4178 179.858 63.5158 180.449 63.7118C181.04 63.9079 181.553 64.2509 181.987 64.741C182.434 65.2189 182.778 65.8927 183.019 66.7626C183.272 67.6326 183.399 68.7475 183.399 70.1075C183.399 71.4675 183.272 72.5886 183.019 73.4708C182.778 74.3407 182.434 75.0207 181.987 75.5108C181.553 75.9886 181.04 76.3255 180.449 76.5216C179.858 76.7176 179.218 76.8156 178.531 76.8156ZM178.549 74.4081C178.983 74.4081 179.345 74.2978 179.635 74.0772C179.936 73.8445 180.159 73.4156 180.304 72.7908C180.449 72.1659 180.521 71.2715 180.521 70.1075C180.521 68.919 180.443 68.0185 180.286 67.4059C180.129 66.7933 179.9 66.3767 179.598 66.1562C179.309 65.9356 178.953 65.8253 178.531 65.8253C178.108 65.8253 177.746 65.9356 177.445 66.1562C177.155 66.3767 176.932 66.7933 176.775 67.4059C176.63 68.0062 176.558 68.8945 176.558 70.0708C176.558 71.2347 176.63 72.1291 176.775 72.754C176.932 73.3789 177.155 73.8138 177.445 74.0589C177.746 74.2917 178.114 74.4081 178.549 74.4081Z" fill="#0C4879"/>
<path d="M185.413 76.5767V74.114L188.544 74.1324L188.652 66.7443H188.544L186.444 68.8945L184.653 67.0016L188.689 63.5097L191.385 63.6934V74.1508L194.136 74.114V76.5767H185.413Z" fill="#0C4879"/>
<path d="M200.031 76.8156C199.343 76.8156 198.704 76.7176 198.113 76.5216C197.534 76.3255 197.021 75.9886 196.574 75.5108C196.128 75.0207 195.778 74.3407 195.525 73.4708C195.283 72.5886 195.163 71.4675 195.163 70.1075C195.163 68.7475 195.283 67.6326 195.525 66.7626C195.778 65.8927 196.128 65.2189 196.574 64.741C197.021 64.2509 197.534 63.9079 198.113 63.7118C198.704 63.5158 199.343 63.4178 200.031 63.4178C200.719 63.4178 201.358 63.5158 201.95 63.7118C202.541 63.9079 203.054 64.2509 203.488 64.741C203.934 65.2189 204.278 65.8927 204.52 66.7626C204.773 67.6326 204.9 68.7475 204.9 70.1075C204.9 71.4675 204.773 72.5886 204.52 73.4708C204.278 74.3407 203.934 75.0207 203.488 75.5108C203.054 75.9886 202.541 76.3255 201.95 76.5216C201.358 76.7176 200.719 76.8156 200.031 76.8156ZM200.049 74.4081C200.484 74.4081 200.846 74.2978 201.135 74.0772C201.437 73.8445 201.66 73.4156 201.805 72.7908C201.95 72.1659 202.022 71.2715 202.022 70.1075C202.022 68.919 201.944 68.0185 201.787 67.4059C201.63 66.7933 201.401 66.3767 201.099 66.1562C200.809 65.9356 200.453 65.8253 200.031 65.8253C199.609 65.8253 199.247 65.9356 198.945 66.1562C198.656 66.3767 198.432 66.7933 198.276 67.4059C198.131 68.0062 198.058 68.8945 198.058 70.0708C198.058 71.2347 198.131 72.1291 198.276 72.754C198.432 73.3789 198.656 73.8138 198.945 74.0589C199.247 74.2917 199.615 74.4081 200.049 74.4081Z" fill="#0C4879"/>
<path d="M206.913 76.5767V74.114L210.044 74.1324L210.153 66.7443H210.044L207.945 68.8945L206.153 67.0016L210.189 63.5097L212.886 63.6934V74.1508L215.637 74.114V76.5767H206.913Z" fill="#0C4879"/>
<path d="M221.532 76.8156C220.844 76.8156 220.204 76.7176 219.613 76.5216C219.034 76.3255 218.521 75.9886 218.075 75.5108C217.628 75.0207 217.279 74.3407 217.025 73.4708C216.784 72.5886 216.663 71.4675 216.663 70.1075C216.663 68.7475 216.784 67.6326 217.025 66.7626C217.279 65.8927 217.628 65.2189 218.075 64.741C218.521 64.2509 219.034 63.9079 219.613 63.7118C220.204 63.5158 220.844 63.4178 221.532 63.4178C222.219 63.4178 222.859 63.5158 223.45 63.7118C224.041 63.9079 224.554 64.2509 224.989 64.741C225.435 65.2189 225.779 65.8927 226.02 66.7626C226.274 67.6326 226.4 68.7475 226.4 70.1075C226.4 71.4675 226.274 72.5886 226.02 73.4708C225.779 74.3407 225.435 75.0207 224.989 75.5108C224.554 75.9886 224.041 76.3255 223.45 76.5216C222.859 76.7176 222.219 76.8156 221.532 76.8156ZM221.55 74.4081C221.984 74.4081 222.346 74.2978 222.636 74.0772C222.937 73.8445 223.161 73.4156 223.305 72.7908C223.45 72.1659 223.523 71.2715 223.523 70.1075C223.523 68.919 223.444 68.0185 223.287 67.4059C223.13 66.7933 222.901 66.3767 222.6 66.1562C222.31 65.9356 221.954 65.8253 221.532 65.8253C221.109 65.8253 220.747 65.9356 220.446 66.1562C220.156 66.3767 219.933 66.7933 219.776 67.4059C219.631 68.0062 219.559 68.8945 219.559 70.0708C219.559 71.2347 219.631 72.1291 219.776 72.754C219.933 73.3789 220.156 73.8138 220.446 74.0589C220.747 74.2917 221.115 74.4081 221.55 74.4081Z" fill="#0C4879"/>
<path d="M125.012 58.4372C124.324 58.4372 123.685 58.3392 123.094 58.1432C122.514 57.9471 122.002 57.6102 121.555 57.1324C121.109 56.6423 120.759 55.9623 120.505 55.0924C120.264 54.2102 120.143 53.0891 120.143 51.7291C120.143 50.3691 120.264 49.2541 120.505 48.3842C120.759 47.5143 121.109 46.8405 121.555 46.3626C122.002 45.8725 122.514 45.5295 123.094 45.3334C123.685 45.1374 124.324 45.0394 125.012 45.0394C125.7 45.0394 126.339 45.1374 126.93 45.3334C127.522 45.5295 128.034 45.8725 128.469 46.3626C128.915 46.8405 129.259 47.5143 129.5 48.3842C129.754 49.2541 129.88 50.3691 129.88 51.7291C129.88 53.0891 129.754 54.2102 129.5 55.0924C129.259 55.9623 128.915 56.6423 128.469 57.1324C128.034 57.6102 127.522 57.9471 126.93 58.1432C126.339 58.3392 125.7 58.4372 125.012 58.4372ZM125.03 56.0297C125.464 56.0297 125.826 55.9194 126.116 55.6988C126.418 55.466 126.641 55.0372 126.786 54.4124C126.93 53.7875 127.003 52.8931 127.003 51.7291C127.003 50.5406 126.924 49.6401 126.768 49.0275C126.611 48.4149 126.381 47.9983 126.08 47.7777C125.79 47.5572 125.434 47.4469 125.012 47.4469C124.59 47.4469 124.228 47.5572 123.926 47.7777C123.636 47.9983 123.413 48.4149 123.256 49.0275C123.112 49.6278 123.039 50.5161 123.039 51.6924C123.039 52.8563 123.112 53.7507 123.256 54.3756C123.413 55.0005 123.636 55.4354 123.926 55.6805C124.228 55.9133 124.596 56.0297 125.03 56.0297Z" fill="#0C4879"/>
<path d="M136.31 58.4372C135.622 58.4372 134.983 58.3392 134.392 58.1432C133.813 57.9471 133.3 57.6102 132.853 57.1324C132.407 56.6423 132.057 55.9623 131.804 55.0924C131.562 54.2102 131.442 53.0891 131.442 51.7291C131.442 50.3691 131.562 49.2541 131.804 48.3842C132.057 47.5143 132.407 46.8405 132.853 46.3626C133.3 45.8725 133.813 45.5295 134.392 45.3334C134.983 45.1374 135.622 45.0394 136.31 45.0394C136.998 45.0394 137.637 45.1374 138.229 45.3334C138.82 45.5295 139.333 45.8725 139.767 46.3626C140.213 46.8405 140.557 47.5143 140.799 48.3842C141.052 49.2541 141.179 50.3691 141.179 51.7291C141.179 53.0891 141.052 54.2102 140.799 55.0924C140.557 55.9623 140.213 56.6423 139.767 57.1324C139.333 57.6102 138.82 57.9471 138.229 58.1432C137.637 58.3392 136.998 58.4372 136.31 58.4372ZM136.328 56.0297C136.763 56.0297 137.125 55.9194 137.414 55.6988C137.716 55.466 137.939 55.0372 138.084 54.4124C138.229 53.7875 138.301 52.8931 138.301 51.7291C138.301 50.5406 138.223 49.6401 138.066 49.0275C137.909 48.4149 137.68 47.9983 137.378 47.7777C137.088 47.5572 136.732 47.4469 136.31 47.4469C135.888 47.4469 135.526 47.5572 135.224 47.7777C134.935 47.9983 134.711 48.4149 134.555 49.0275C134.41 49.6278 134.337 50.5161 134.337 51.6924C134.337 52.8563 134.41 53.7507 134.555 54.3756C134.711 55.0005 134.935 55.4354 135.224 55.6805C135.526 55.9133 135.894 56.0297 136.328 56.0297Z" fill="#0C4879"/>
<path d="M143.192 58.1983V55.7356L146.323 55.754L146.432 48.3659H146.323L144.224 50.5161L142.432 48.6232L146.468 45.1313L149.165 45.315V55.7724L151.916 55.7356V58.1983H143.192Z" fill="#0C4879"/>
<path d="M157.811 58.4372C157.123 58.4372 156.484 58.3392 155.892 58.1432C155.313 57.9471 154.8 57.6102 154.354 57.1324C153.907 56.6423 153.558 55.9623 153.304 55.0924C153.063 54.2102 152.942 53.0891 152.942 51.7291C152.942 50.3691 153.063 49.2541 153.304 48.3842C153.558 47.5143 153.907 46.8405 154.354 46.3626C154.8 45.8725 155.313 45.5295 155.892 45.3334C156.484 45.1374 157.123 45.0394 157.811 45.0394C158.498 45.0394 159.138 45.1374 159.729 45.3334C160.32 45.5295 160.833 45.8725 161.268 46.3626C161.714 46.8405 162.058 47.5143 162.299 48.3842C162.553 49.2541 162.679 50.3691 162.679 51.7291C162.679 53.0891 162.553 54.2102 162.299 55.0924C162.058 55.9623 161.714 56.6423 161.268 57.1324C160.833 57.6102 160.32 57.9471 159.729 58.1432C159.138 58.3392 158.498 58.4372 157.811 58.4372ZM157.829 56.0297C158.263 56.0297 158.625 55.9194 158.915 55.6988C159.216 55.466 159.44 55.0372 159.584 54.4124C159.729 53.7875 159.802 52.8931 159.802 51.7291C159.802 50.5406 159.723 49.6401 159.566 49.0275C159.409 48.4149 159.18 47.9983 158.879 47.7777C158.589 47.5572 158.233 47.4469 157.811 47.4469C157.388 47.4469 157.026 47.5572 156.725 47.7777C156.435 47.9983 156.212 48.4149 156.055 49.0275C155.91 49.6278 155.838 50.5161 155.838 51.6924C155.838 52.8563 155.91 53.7507 156.055 54.3756C156.212 55.0005 156.435 55.4354 156.725 55.6805C157.026 55.9133 157.394 56.0297 157.829 56.0297Z" fill="#0C4879"/>
<path d="M169.109 58.4372C168.421 58.4372 167.782 58.3392 167.19 58.1432C166.611 57.9471 166.099 57.6102 165.652 57.1324C165.206 56.6423 164.856 55.9623 164.602 55.0924C164.361 54.2102 164.24 53.0891 164.24 51.7291C164.24 50.3691 164.361 49.2541 164.602 48.3842C164.856 47.5143 165.206 46.8405 165.652 46.3626C166.099 45.8725 166.611 45.5295 167.19 45.3334C167.782 45.1374 168.421 45.0394 169.109 45.0394C169.797 45.0394 170.436 45.1374 171.027 45.3334C171.619 45.5295 172.131 45.8725 172.566 46.3626C173.012 46.8405 173.356 47.5143 173.597 48.3842C173.851 49.2541 173.977 50.3691 173.977 51.7291C173.977 53.0891 173.851 54.2102 173.597 55.0924C173.356 55.9623 173.012 56.6423 172.566 57.1324C172.131 57.6102 171.619 57.9471 171.027 58.1432C170.436 58.3392 169.797 58.4372 169.109 58.4372ZM169.127 56.0297C169.561 56.0297 169.923 55.9194 170.213 55.6988C170.515 55.466 170.738 55.0372 170.883 54.4124C171.027 53.7875 171.1 52.8931 171.1 51.7291C171.1 50.5406 171.021 49.6401 170.864 49.0275C170.708 48.4149 170.478 47.9983 170.177 47.7777C169.887 47.5572 169.531 47.4469 169.109 47.4469C168.687 47.4469 168.325 47.5572 168.023 47.7777C167.733 47.9983 167.51 48.4149 167.353 49.0275C167.209 49.6278 167.136 50.5161 167.136 51.6924C167.136 52.8563 167.209 53.7507 167.353 54.3756C167.51 55.0005 167.733 55.4354 168.023 55.6805C168.325 55.9133 168.693 56.0297 169.127 56.0297Z" fill="#0C4879"/>
<path d="M180.407 58.4372C179.719 58.4372 179.08 58.3392 178.489 58.1432C177.91 57.9471 177.397 57.6102 176.95 57.1324C176.504 56.6423 176.154 55.9623 175.901 55.0924C175.659 54.2102 175.539 53.0891 175.539 51.7291C175.539 50.3691 175.659 49.2541 175.901 48.3842C176.154 47.5143 176.504 46.8405 176.95 46.3626C177.397 45.8725 177.91 45.5295 178.489 45.3334C179.08 45.1374 179.719 45.0394 180.407 45.0394C181.095 45.0394 181.734 45.1374 182.326 45.3334C182.917 45.5295 183.43 45.8725 183.864 46.3626C184.31 46.8405 184.654 47.5143 184.896 48.3842C185.149 49.2541 185.276 50.3691 185.276 51.7291C185.276 53.0891 185.149 54.2102 184.896 55.0924C184.654 55.9623 184.31 56.6423 183.864 57.1324C183.43 57.6102 182.917 57.9471 182.326 58.1432C181.734 58.3392 181.095 58.4372 180.407 58.4372ZM180.425 56.0297C180.86 56.0297 181.222 55.9194 181.511 55.6988C181.813 55.466 182.036 55.0372 182.181 54.4124C182.326 53.7875 182.398 52.8931 182.398 51.7291C182.398 50.5406 182.32 49.6401 182.163 49.0275C182.006 48.4149 181.777 47.9983 181.475 47.7777C181.185 47.5572 180.829 47.4469 180.407 47.4469C179.985 47.4469 179.623 47.5572 179.321 47.7777C179.032 47.9983 178.808 48.4149 178.652 49.0275C178.507 49.6278 178.434 50.5161 178.434 51.6924C178.434 52.8563 178.507 53.7507 178.652 54.3756C178.808 55.0005 179.032 55.4354 179.321 55.6805C179.623 55.9133 179.991 56.0297 180.425 56.0297Z" fill="#0C4879"/>
<path d="M187.289 58.1983V55.7356L190.42 55.754L190.529 48.3659H190.42L188.321 50.5161L186.529 48.6232L190.565 45.1313L193.262 45.315V55.7724L196.013 55.7356V58.1983H187.289Z" fill="#0C4879"/>
<path d="M201.908 58.4372C201.22 58.4372 200.58 58.3392 199.989 58.1432C199.41 57.9471 198.897 57.6102 198.451 57.1324C198.004 56.6423 197.655 55.9623 197.401 55.0924C197.16 54.2102 197.039 53.0891 197.039 51.7291C197.039 50.3691 197.16 49.2541 197.401 48.3842C197.655 47.5143 198.004 46.8405 198.451 46.3626C198.897 45.8725 199.41 45.5295 199.989 45.3334C200.58 45.1374 201.22 45.0394 201.908 45.0394C202.595 45.0394 203.235 45.1374 203.826 45.3334C204.417 45.5295 204.93 45.8725 205.365 46.3626C205.811 46.8405 206.155 47.5143 206.396 48.3842C206.65 49.2541 206.776 50.3691 206.776 51.7291C206.776 53.0891 206.65 54.2102 206.396 55.0924C206.155 55.9623 205.811 56.6423 205.365 57.1324C204.93 57.6102 204.417 57.9471 203.826 58.1432C203.235 58.3392 202.595 58.4372 201.908 58.4372ZM201.926 56.0297C202.36 56.0297 202.722 55.9194 203.012 55.6988C203.313 55.466 203.537 55.0372 203.681 54.4124C203.826 53.7875 203.899 52.8931 203.899 51.7291C203.899 50.5406 203.82 49.6401 203.663 49.0275C203.506 48.4149 203.277 47.9983 202.975 47.7777C202.686 47.5572 202.33 47.4469 201.908 47.4469C201.485 47.4469 201.123 47.5572 200.822 47.7777C200.532 47.9983 200.309 48.4149 200.152 49.0275C200.007 49.6278 199.935 50.5161 199.935 51.6924C199.935 52.8563 200.007 53.7507 200.152 54.3756C200.309 55.0005 200.532 55.4354 200.822 55.6805C201.123 55.9133 201.491 56.0297 201.926 56.0297Z" fill="#0C4879"/>
<path d="M208.79 58.1983V55.7356L211.921 55.754L212.029 48.3659H211.921L209.821 50.5161L208.03 48.6232L212.066 45.1313L214.762 45.315V55.7724L217.513 55.7356V58.1983H208.79Z" fill="#0C4879"/>
<path d="M218.992 58.1983V55.7356L222.123 55.754L222.232 48.3659H222.123L220.024 50.5161L218.232 48.6232L222.268 45.1313L224.965 45.315V55.7724L227.716 55.7356V58.1983H218.992Z" fill="#0C4879"/>
<path d="M136.31 93.9688C135.622 93.9688 134.983 93.8708 134.392 93.6748C133.813 93.4787 133.3 93.1418 132.853 92.6639C132.407 92.1738 132.057 91.4939 131.804 90.6239C131.562 89.7418 131.442 88.6207 131.442 87.2607C131.442 85.9007 131.562 84.7857 131.804 83.9158C132.057 83.0459 132.407 82.372 132.853 81.8942C133.3 81.4041 133.813 81.061 134.392 80.865C134.983 80.669 135.622 80.571 136.31 80.571C136.998 80.571 137.637 80.669 138.229 80.865C138.82 81.061 139.333 81.4041 139.767 81.8942C140.213 82.372 140.557 83.0459 140.799 83.9158C141.052 84.7857 141.179 85.9007 141.179 87.2607C141.179 88.6207 141.052 89.7418 140.799 90.6239C140.557 91.4939 140.213 92.1738 139.767 92.6639C139.333 93.1418 138.82 93.4787 138.229 93.6748C137.637 93.8708 136.998 93.9688 136.31 93.9688ZM136.328 91.5612C136.763 91.5612 137.125 91.451 137.414 91.2304C137.716 90.9976 137.939 90.5688 138.084 89.9439C138.229 89.3191 138.301 88.4247 138.301 87.2607C138.301 86.0722 138.223 85.1717 138.066 84.5591C137.909 83.9465 137.68 83.5299 137.378 83.3093C137.088 83.0888 136.732 82.9785 136.31 82.9785C135.888 82.9785 135.526 83.0888 135.224 83.3093C134.935 83.5299 134.711 83.9465 134.555 84.5591C134.41 85.1594 134.337 86.0477 134.337 87.2239C134.337 88.3879 134.41 89.2823 134.555 89.9072C134.711 90.532 134.935 90.967 135.224 91.212C135.526 91.4448 135.894 91.5612 136.328 91.5612Z" fill="#0C4879"/>
<path d="M143.192 93.7299V91.2672L146.323 91.2856L146.432 83.8974H146.323L144.224 86.0477L142.432 84.1547L146.468 80.6628L149.165 80.8466V91.3039L151.916 91.2672V93.7299H143.192Z" fill="#0C4879"/>
<path d="M157.811 93.9688C157.123 93.9688 156.484 93.8708 155.892 93.6748C155.313 93.4787 154.8 93.1418 154.354 92.6639C153.907 92.1738 153.558 91.4939 153.304 90.6239C153.063 89.7418 152.942 88.6207 152.942 87.2607C152.942 85.9007 153.063 84.7857 153.304 83.9158C153.558 83.0459 153.907 82.372 154.354 81.8942C154.8 81.4041 155.313 81.061 155.892 80.865C156.484 80.669 157.123 80.571 157.811 80.571C158.498 80.571 159.138 80.669 159.729 80.865C160.32 81.061 160.833 81.4041 161.268 81.8942C161.714 82.372 162.058 83.0459 162.299 83.9158C162.553 84.7857 162.679 85.9007 162.679 87.2607C162.679 88.6207 162.553 89.7418 162.299 90.6239C162.058 91.4939 161.714 92.1738 161.268 92.6639C160.833 93.1418 160.32 93.4787 159.729 93.6748C159.138 93.8708 158.498 93.9688 157.811 93.9688ZM157.829 91.5612C158.263 91.5612 158.625 91.451 158.915 91.2304C159.216 90.9976 159.44 90.5688 159.584 89.9439C159.729 89.3191 159.802 88.4247 159.802 87.2607C159.802 86.0722 159.723 85.1717 159.566 84.5591C159.409 83.9465 159.18 83.5299 158.879 83.3093C158.589 83.0888 158.233 82.9785 157.811 82.9785C157.388 82.9785 157.026 83.0888 156.725 83.3093C156.435 83.5299 156.212 83.9465 156.055 84.5591C155.91 85.1594 155.838 86.0477 155.838 87.2239C155.838 88.3879 155.91 89.2823 156.055 89.9072C156.212 90.532 156.435 90.967 156.725 91.212C157.026 91.4448 157.394 91.5612 157.829 91.5612Z" fill="#0C4879"/>
<path d="M169.109 93.9688C168.421 93.9688 167.782 93.8708 167.19 93.6748C166.611 93.4787 166.099 93.1418 165.652 92.6639C165.206 92.1738 164.856 91.4939 164.602 90.6239C164.361 89.7418 164.24 88.6207 164.24 87.2607C164.24 85.9007 164.361 84.7857 164.602 83.9158C164.856 83.0459 165.206 82.372 165.652 81.8942C166.099 81.4041 166.611 81.061 167.19 80.865C167.782 80.669 168.421 80.571 169.109 80.571C169.797 80.571 170.436 80.669 171.027 80.865C171.619 81.061 172.131 81.4041 172.566 81.8942C173.012 82.372 173.356 83.0459 173.597 83.9158C173.851 84.7857 173.977 85.9007 173.977 87.2607C173.977 88.6207 173.851 89.7418 173.597 90.6239C173.356 91.4939 173.012 92.1738 172.566 92.6639C172.131 93.1418 171.619 93.4787 171.027 93.6748C170.436 93.8708 169.797 93.9688 169.109 93.9688ZM169.127 91.5612C169.561 91.5612 169.923 91.451 170.213 91.2304C170.515 90.9976 170.738 90.5688 170.883 89.9439C171.027 89.3191 171.1 88.4247 171.1 87.2607C171.1 86.0722 171.021 85.1717 170.864 84.5591C170.708 83.9465 170.478 83.5299 170.177 83.3093C169.887 83.0888 169.531 82.9785 169.109 82.9785C168.687 82.9785 168.325 83.0888 168.023 83.3093C167.733 83.5299 167.51 83.9465 167.353 84.5591C167.209 85.1594 167.136 86.0477 167.136 87.2239C167.136 88.3879 167.209 89.2823 167.353 89.9072C167.51 90.532 167.733 90.967 168.023 91.212C168.325 91.4448 168.693 91.5612 169.127 91.5612Z" fill="#0C4879"/>
<path d="M180.407 93.9688C179.719 93.9688 179.08 93.8708 178.489 93.6748C177.91 93.4787 177.397 93.1418 176.95 92.6639C176.504 92.1738 176.154 91.4939 175.901 90.6239C175.659 89.7418 175.539 88.6207 175.539 87.2607C175.539 85.9007 175.659 84.7857 175.901 83.9158C176.154 83.0459 176.504 82.372 176.95 81.8942C177.397 81.4041 177.91 81.061 178.489 80.865C179.08 80.669 179.719 80.571 180.407 80.571C181.095 80.571 181.734 80.669 182.326 80.865C182.917 81.061 183.43 81.4041 183.864 81.8942C184.31 82.372 184.654 83.0459 184.896 83.9158C185.149 84.7857 185.276 85.9007 185.276 87.2607C185.276 88.6207 185.149 89.7418 184.896 90.6239C184.654 91.4939 184.31 92.1738 183.864 92.6639C183.43 93.1418 182.917 93.4787 182.326 93.6748C181.734 93.8708 181.095 93.9688 180.407 93.9688ZM180.425 91.5612C180.86 91.5612 181.222 91.451 181.511 91.2304C181.813 90.9976 182.036 90.5688 182.181 89.9439C182.326 89.3191 182.398 88.4247 182.398 87.2607C182.398 86.0722 182.32 85.1717 182.163 84.5591C182.006 83.9465 181.777 83.5299 181.475 83.3093C181.185 83.0888 180.829 82.9785 180.407 82.9785C179.985 82.9785 179.623 83.0888 179.321 83.3093C179.032 83.5299 178.808 83.9465 178.652 84.5591C178.507 85.1594 178.434 86.0477 178.434 87.2239C178.434 88.3879 178.507 89.2823 178.652 89.9072C178.808 90.532 179.032 90.967 179.321 91.212C179.623 91.4448 179.991 91.5612 180.425 91.5612Z" fill="#0C4879"/>
<path d="M187.289 93.7299V91.2672L190.42 91.2856L190.529 83.8974H190.42L188.321 86.0477L186.529 84.1547L190.565 80.6628L193.262 80.8466V91.3039L196.013 91.2672V93.7299H187.289Z" fill="#0C4879"/>
<path d="M201.908 93.9688C201.22 93.9688 200.58 93.8708 199.989 93.6748C199.41 93.4787 198.897 93.1418 198.451 92.6639C198.004 92.1738 197.655 91.4939 197.401 90.6239C197.16 89.7418 197.039 88.6207 197.039 87.2607C197.039 85.9007 197.16 84.7857 197.401 83.9158C197.655 83.0459 198.004 82.372 198.451 81.8942C198.897 81.4041 199.41 81.061 199.989 80.865C200.58 80.669 201.22 80.571 201.908 80.571C202.595 80.571 203.235 80.669 203.826 80.865C204.417 81.061 204.93 81.4041 205.365 81.8942C205.811 82.372 206.155 83.0459 206.396 83.9158C206.65 84.7857 206.776 85.9007 206.776 87.2607C206.776 88.6207 206.65 89.7418 206.396 90.6239C206.155 91.4939 205.811 92.1738 205.365 92.6639C204.93 93.1418 204.417 93.4787 203.826 93.6748C203.235 93.8708 202.595 93.9688 201.908 93.9688ZM201.926 91.5612C202.36 91.5612 202.722 91.451 203.012 91.2304C203.313 90.9976 203.537 90.5688 203.681 89.9439C203.826 89.3191 203.899 88.4247 203.899 87.2607C203.899 86.0722 203.82 85.1717 203.663 84.5591C203.506 83.9465 203.277 83.5299 202.976 83.3093C202.686 83.0888 202.33 82.9785 201.908 82.9785C201.485 82.9785 201.123 83.0888 200.822 83.3093C200.532 83.5299 200.309 83.9465 200.152 84.5591C200.007 85.1594 199.935 86.0477 199.935 87.2239C199.935 88.3879 200.007 89.2823 200.152 89.9072C200.309 90.532 200.532 90.967 200.822 91.212C201.123 91.4448 201.491 91.5612 201.926 91.5612Z" fill="#0C4879"/>
<path d="M208.79 93.7299V91.2672L211.921 91.2856L212.029 83.8974H211.921L209.821 86.0477L208.03 84.1547L212.066 80.6628L214.762 80.8466V91.3039L217.513 91.2672V93.7299H208.79Z" fill="#0C4879"/>
<path d="M218.992 93.7299V91.2672L222.123 91.2856L222.232 83.8974H222.123L220.024 86.0477L218.232 84.1547L222.268 80.6628L224.965 80.8466V91.3039L227.716 91.2672V93.7299H218.992Z" fill="#0C4879"/>
<path d="M136.31 130.113C135.622 130.113 134.983 130.015 134.392 129.819C133.813 129.623 133.3 129.286 132.853 128.808C132.407 128.318 132.057 127.638 131.804 126.768C131.562 125.886 131.442 124.765 131.442 123.405C131.442 122.045 131.562 120.93 131.804 120.06C132.057 119.19 132.407 118.516 132.853 118.038C133.3 117.548 133.813 117.205 134.392 117.009C134.983 116.813 135.622 116.715 136.31 116.715C136.998 116.715 137.637 116.813 138.229 117.009C138.82 117.205 139.333 117.548 139.767 118.038C140.213 118.516 140.557 119.19 140.799 120.06C141.052 120.93 141.179 122.045 141.179 123.405C141.179 124.765 141.052 125.886 140.799 126.768C140.557 127.638 140.213 128.318 139.767 128.808C139.333 129.286 138.82 129.623 138.229 129.819C137.637 130.015 136.998 130.113 136.31 130.113ZM136.328 127.705C136.763 127.705 137.125 127.595 137.414 127.375C137.716 127.142 137.939 126.713 138.084 126.088C138.229 125.463 138.301 124.569 138.301 123.405C138.301 122.216 138.223 121.316 138.066 120.703C137.909 120.091 137.68 119.674 137.378 119.454C137.088 119.233 136.732 119.123 136.31 119.123C135.888 119.123 135.526 119.233 135.224 119.454C134.935 119.674 134.711 120.091 134.555 120.703C134.41 121.304 134.337 122.192 134.337 123.368C134.337 124.532 134.41 125.427 134.555 126.051C134.711 126.676 134.935 127.111 135.224 127.356C135.526 127.589 135.894 127.705 136.328 127.705Z" fill="#0C4879"/>
<path d="M143.192 129.874V127.411L146.323 127.43L146.432 120.042H146.323L144.224 122.192L142.432 120.299L146.468 116.807L149.165 116.991V127.448L151.916 127.411V129.874H143.192Z" fill="#0C4879"/>
<path d="M157.811 130.113C157.123 130.113 156.484 130.015 155.892 129.819C155.313 129.623 154.8 129.286 154.354 128.808C153.907 128.318 153.558 127.638 153.304 126.768C153.063 125.886 152.942 124.765 152.942 123.405C152.942 122.045 153.063 120.93 153.304 120.06C153.558 119.19 153.907 118.516 154.354 118.038C154.8 117.548 155.313 117.205 155.892 117.009C156.484 116.813 157.123 116.715 157.811 116.715C158.498 116.715 159.138 116.813 159.729 117.009C160.32 117.205 160.833 117.548 161.268 118.038C161.714 118.516 162.058 119.19 162.299 120.06C162.553 120.93 162.679 122.045 162.679 123.405C162.679 124.765 162.553 125.886 162.299 126.768C162.058 127.638 161.714 128.318 161.268 128.808C160.833 129.286 160.32 129.623 159.729 129.819C159.138 130.015 158.498 130.113 157.811 130.113ZM157.829 127.705C158.263 127.705 158.625 127.595 158.915 127.375C159.216 127.142 159.44 126.713 159.584 126.088C159.729 125.463 159.802 124.569 159.802 123.405C159.802 122.216 159.723 121.316 159.566 120.703C159.409 120.091 159.18 119.674 158.879 119.454C158.589 119.233 158.233 119.123 157.811 119.123C157.388 119.123 157.026 119.233 156.725 119.454C156.435 119.674 156.212 120.091 156.055 120.703C155.91 121.304 155.838 122.192 155.838 123.368C155.838 124.532 155.91 125.427 156.055 126.051C156.212 126.676 156.435 127.111 156.725 127.356C157.026 127.589 157.394 127.705 157.829 127.705Z" fill="#0C4879"/>
<path d="M169.109 130.113C168.421 130.113 167.782 130.015 167.19 129.819C166.611 129.623 166.099 129.286 165.652 128.808C165.206 128.318 164.856 127.638 164.602 126.768C164.361 125.886 164.24 124.765 164.24 123.405C164.24 122.045 164.361 120.93 164.602 120.06C164.856 119.19 165.206 118.516 165.652 118.038C166.099 117.548 166.611 117.205 167.19 117.009C167.782 116.813 168.421 116.715 169.109 116.715C169.797 116.715 170.436 116.813 171.027 117.009C171.619 117.205 172.131 117.548 172.566 118.038C173.012 118.516 173.356 119.19 173.597 120.06C173.851 120.93 173.977 122.045 173.977 123.405C173.977 124.765 173.851 125.886 173.597 126.768C173.356 127.638 173.012 128.318 172.566 128.808C172.131 129.286 171.619 129.623 171.027 129.819C170.436 130.015 169.797 130.113 169.109 130.113ZM169.127 127.705C169.561 127.705 169.923 127.595 170.213 127.375C170.515 127.142 170.738 126.713 170.883 126.088C171.027 125.463 171.1 124.569 171.1 123.405C171.1 122.216 171.021 121.316 170.864 120.703C170.708 120.091 170.478 119.674 170.177 119.454C169.887 119.233 169.531 119.123 169.109 119.123C168.687 119.123 168.325 119.233 168.023 119.454C167.733 119.674 167.51 120.091 167.353 120.703C167.209 121.304 167.136 122.192 167.136 123.368C167.136 124.532 167.209 125.427 167.353 126.051C167.51 126.676 167.733 127.111 168.023 127.356C168.325 127.589 168.693 127.705 169.127 127.705Z" fill="#0C4879"/>
<path d="M180.407 130.113C179.719 130.113 179.08 130.015 178.489 129.819C177.91 129.623 177.397 129.286 176.95 128.808C176.504 128.318 176.154 127.638 175.901 126.768C175.659 125.886 175.539 124.765 175.539 123.405C175.539 122.045 175.659 120.93 175.901 120.06C176.154 119.19 176.504 118.516 176.95 118.038C177.397 117.548 177.91 117.205 178.489 117.009C179.08 116.813 179.719 116.715 180.407 116.715C181.095 116.715 181.734 116.813 182.326 117.009C182.917 117.205 183.43 117.548 183.864 118.038C184.31 118.516 184.654 119.19 184.896 120.06C185.149 120.93 185.276 122.045 185.276 123.405C185.276 124.765 185.149 125.886 184.896 126.768C184.654 127.638 184.31 128.318 183.864 128.808C183.43 129.286 182.917 129.623 182.326 129.819C181.734 130.015 181.095 130.113 180.407 130.113ZM180.425 127.705C180.86 127.705 181.222 127.595 181.511 127.375C181.813 127.142 182.036 126.713 182.181 126.088C182.326 125.463 182.398 124.569 182.398 123.405C182.398 122.216 182.32 121.316 182.163 120.703C182.006 120.091 181.777 119.674 181.475 119.454C181.185 119.233 180.829 119.123 180.407 119.123C179.985 119.123 179.623 119.233 179.321 119.454C179.032 119.674 178.808 120.091 178.652 120.703C178.507 121.304 178.434 122.192 178.434 123.368C178.434 124.532 178.507 125.427 178.652 126.051C178.808 126.676 179.032 127.111 179.321 127.356C179.623 127.589 179.991 127.705 180.425 127.705Z" fill="#0C4879"/>
<path d="M187.289 129.874V127.411L190.42 127.43L190.529 120.042H190.42L188.321 122.192L186.529 120.299L190.565 116.807L193.262 116.991V127.448L196.013 127.411V129.874H187.289Z" fill="#0C4879"/>
<path d="M201.908 130.113C201.22 130.113 200.58 130.015 199.989 129.819C199.41 129.623 198.897 129.286 198.451 128.808C198.004 128.318 197.655 127.638 197.401 126.768C197.16 125.886 197.039 124.765 197.039 123.405C197.039 122.045 197.16 120.93 197.401 120.06C197.655 119.19 198.004 118.516 198.451 118.038C198.897 117.548 199.41 117.205 199.989 117.009C200.58 116.813 201.22 116.715 201.908 116.715C202.595 116.715 203.235 116.813 203.826 117.009C204.417 117.205 204.93 117.548 205.365 118.038C205.811 118.516 206.155 119.19 206.396 120.06C206.65 120.93 206.776 122.045 206.776 123.405C206.776 124.765 206.65 125.886 206.396 126.768C206.155 127.638 205.811 128.318 205.365 128.808C204.93 129.286 204.417 129.623 203.826 129.819C203.235 130.015 202.595 130.113 201.908 130.113ZM201.926 127.705C202.36 127.705 202.722 127.595 203.012 127.375C203.313 127.142 203.537 126.713 203.681 126.088C203.826 125.463 203.899 124.569 203.899 123.405C203.899 122.216 203.82 121.316 203.663 120.703C203.506 120.091 203.277 119.674 202.976 119.454C202.686 119.233 202.33 119.123 201.908 119.123C201.485 119.123 201.123 119.233 200.822 119.454C200.532 119.674 200.309 120.091 200.152 120.703C200.007 121.304 199.935 122.192 199.935 123.368C199.935 124.532 200.007 125.427 200.152 126.051C200.309 126.676 200.532 127.111 200.822 127.356C201.123 127.589 201.491 127.705 201.926 127.705Z" fill="#0C4879"/>
<path d="M208.79 129.874V127.411L211.921 127.43L212.029 120.042H211.921L209.821 122.192L208.03 120.299L212.066 116.807L214.762 116.991V127.448L217.513 127.411V129.874H208.79Z" fill="#0C4879"/>
<path d="M218.992 129.874V127.411L222.123 127.43L222.232 120.042H222.123L220.024 122.192L218.232 120.299L222.268 116.807L224.965 116.991V127.448L227.716 127.411V129.874H218.992Z" fill="#0C4879"/>
<path d="M127.314 149.104C126.627 149.104 125.987 149.006 125.396 148.81C124.817 148.614 124.304 148.277 123.858 147.799C123.411 147.309 123.061 146.629 122.808 145.759C122.566 144.877 122.446 143.756 122.446 142.396C122.446 141.036 122.566 139.921 122.808 139.051C123.061 138.181 123.411 137.507 123.858 137.029C124.304 136.539 124.817 136.196 125.396 136C125.987 135.804 126.627 135.706 127.314 135.706C128.002 135.706 128.642 135.804 129.233 136C129.824 136.196 130.337 136.539 130.771 137.029C131.218 137.507 131.561 138.181 131.803 139.051C132.056 139.921 132.183 141.036 132.183 142.396C132.183 143.756 132.056 144.877 131.803 145.759C131.561 146.629 131.218 147.309 130.771 147.799C130.337 148.277 129.824 148.614 129.233 148.81C128.642 149.006 128.002 149.104 127.314 149.104ZM127.332 146.696C127.767 146.696 128.129 146.586 128.418 146.366C128.72 146.133 128.943 145.704 129.088 145.079C129.233 144.454 129.305 143.56 129.305 142.396C129.305 141.207 129.227 140.307 129.07 139.694C128.913 139.082 128.684 138.665 128.382 138.445C128.093 138.224 127.737 138.114 127.314 138.114C126.892 138.114 126.53 138.224 126.228 138.445C125.939 138.665 125.716 139.082 125.559 139.694C125.414 140.295 125.342 141.183 125.342 142.359C125.342 143.523 125.414 144.418 125.559 145.042C125.716 145.667 125.939 146.102 126.228 146.347C126.53 146.58 126.898 146.696 127.332 146.696Z" fill="#0C4879"/>
<path d="M134.196 148.865V146.402L137.328 146.421L137.436 139.033H137.328L135.228 141.183L133.436 139.29L137.472 135.798L140.169 135.982V146.439L142.92 146.402V148.865H134.196Z" fill="#0C4879"/>
<path d="M144.399 148.865V146.402L147.53 146.421L147.639 139.033H147.53L145.43 141.183L143.639 139.29L147.675 135.798L150.371 135.982V146.439L153.122 146.402V148.865H144.399Z" fill="#0C4879"/>
<path d="M159.017 149.104C158.33 149.104 157.69 149.006 157.099 148.81C156.52 148.614 156.007 148.277 155.56 147.799C155.114 147.309 154.764 146.629 154.511 145.759C154.269 144.877 154.149 143.756 154.149 142.396C154.149 141.036 154.269 139.921 154.511 139.051C154.764 138.181 155.114 137.507 155.56 137.029C156.007 136.539 156.52 136.196 157.099 136C157.69 135.804 158.33 135.706 159.017 135.706C159.705 135.706 160.345 135.804 160.936 136C161.527 136.196 162.04 136.539 162.474 137.029C162.921 137.507 163.264 138.181 163.506 139.051C163.759 139.921 163.886 141.036 163.886 142.396C163.886 143.756 163.759 144.877 163.506 145.759C163.264 146.629 162.921 147.309 162.474 147.799C162.04 148.277 161.527 148.614 160.936 148.81C160.345 149.006 159.705 149.104 159.017 149.104ZM159.035 146.696C159.47 146.696 159.832 146.586 160.121 146.366C160.423 146.133 160.646 145.704 160.791 145.079C160.936 144.454 161.008 143.56 161.008 142.396C161.008 141.207 160.93 140.307 160.773 139.694C160.616 139.082 160.387 138.665 160.085 138.445C159.796 138.224 159.44 138.114 159.017 138.114C158.595 138.114 158.233 138.224 157.931 138.445C157.642 138.665 157.419 139.082 157.262 139.694C157.117 140.295 157.045 141.183 157.045 142.359C157.045 143.523 157.117 144.418 157.262 145.042C157.419 145.667 157.642 146.102 157.931 146.347C158.233 146.58 158.601 146.696 159.035 146.696Z" fill="#0C4879"/>
<path d="M170.315 149.104C169.628 149.104 168.988 149.006 168.397 148.81C167.818 148.614 167.305 148.277 166.859 147.799C166.412 147.309 166.062 146.629 165.809 145.759C165.568 144.877 165.447 143.756 165.447 142.396C165.447 141.036 165.568 139.921 165.809 139.051C166.062 138.181 166.412 137.507 166.859 137.029C167.305 136.539 167.818 136.196 168.397 136C168.988 135.804 169.628 135.706 170.315 135.706C171.003 135.706 171.643 135.804 172.234 136C172.825 136.196 173.338 136.539 173.772 137.029C174.219 137.507 174.563 138.181 174.804 139.051C175.057 139.921 175.184 141.036 175.184 142.396C175.184 143.756 175.057 144.877 174.804 145.759C174.563 146.629 174.219 147.309 173.772 147.799C173.338 148.277 172.825 148.614 172.234 148.81C171.643 149.006 171.003 149.104 170.315 149.104ZM170.334 146.696C170.768 146.696 171.13 146.586 171.42 146.366C171.721 146.133 171.944 145.704 172.089 145.079C172.234 144.454 172.306 143.56 172.306 142.396C172.306 141.207 172.228 140.307 172.071 139.694C171.914 139.082 171.685 138.665 171.383 138.445C171.094 138.224 170.738 138.114 170.315 138.114C169.893 138.114 169.531 138.224 169.23 138.445C168.94 138.665 168.717 139.082 168.56 139.694C168.415 140.295 168.343 141.183 168.343 142.359C168.343 143.523 168.415 144.418 168.56 145.042C168.717 145.667 168.94 146.102 169.23 146.347C169.531 146.58 169.899 146.696 170.334 146.696Z" fill="#0C4879"/>
<path d="M181.614 149.104C180.926 149.104 180.286 149.006 179.695 148.81C179.116 148.614 178.603 148.277 178.157 147.799C177.71 147.309 177.361 146.629 177.107 145.759C176.866 144.877 176.745 143.756 176.745 142.396C176.745 141.036 176.866 139.921 177.107 139.051C177.361 138.181 177.71 137.507 178.157 137.029C178.603 136.539 179.116 136.196 179.695 136C180.286 135.804 180.926 135.706 181.614 135.706C182.301 135.706 182.941 135.804 183.532 136C184.123 136.196 184.636 136.539 185.071 137.029C185.517 137.507 185.861 138.181 186.102 139.051C186.356 139.921 186.482 141.036 186.482 142.396C186.482 143.756 186.356 144.877 186.102 145.759C185.861 146.629 185.517 147.309 185.071 147.799C184.636 148.277 184.123 148.614 183.532 148.81C182.941 149.006 182.301 149.104 181.614 149.104ZM181.632 146.696C182.066 146.696 182.428 146.586 182.718 146.366C183.019 146.133 183.243 145.704 183.387 145.079C183.532 144.454 183.605 143.56 183.605 142.396C183.605 141.207 183.526 140.307 183.369 139.694C183.212 139.082 182.983 138.665 182.682 138.445C182.392 138.224 182.036 138.114 181.614 138.114C181.191 138.114 180.829 138.224 180.528 138.445C180.238 138.665 180.015 139.082 179.858 139.694C179.713 140.295 179.641 141.183 179.641 142.359C179.641 143.523 179.713 144.418 179.858 145.042C180.015 145.667 180.238 146.102 180.528 146.347C180.829 146.58 181.197 146.696 181.632 146.696Z" fill="#0C4879"/>
<path d="M188.496 148.865V146.402L191.627 146.421L191.735 139.033H191.627L189.527 141.183L187.736 139.29L191.772 135.798L194.468 135.982V146.439L197.219 146.402V148.865H188.496Z" fill="#0C4879"/>
<path d="M203.114 149.104C202.427 149.104 201.787 149.006 201.196 148.81C200.617 148.614 200.104 148.277 199.657 147.799C199.211 147.309 198.861 146.629 198.608 145.759C198.366 144.877 198.246 143.756 198.246 142.396C198.246 141.036 198.366 139.921 198.608 139.051C198.861 138.181 199.211 137.507 199.657 137.029C200.104 136.539 200.617 136.196 201.196 136C201.787 135.804 202.427 135.706 203.114 135.706C203.802 135.706 204.441 135.804 205.033 136C205.624 136.196 206.137 136.539 206.571 137.029C207.018 137.507 207.361 138.181 207.603 139.051C207.856 139.921 207.983 141.036 207.983 142.396C207.983 143.756 207.856 144.877 207.603 145.759C207.361 146.629 207.018 147.309 206.571 147.799C206.137 148.277 205.624 148.614 205.033 148.81C204.441 149.006 203.802 149.104 203.114 149.104ZM203.132 146.696C203.567 146.696 203.929 146.586 204.218 146.366C204.52 146.133 204.743 145.704 204.888 145.079C205.033 144.454 205.105 143.56 205.105 142.396C205.105 141.207 205.027 140.307 204.87 139.694C204.713 139.082 204.484 138.665 204.182 138.445C203.892 138.224 203.537 138.114 203.114 138.114C202.692 138.114 202.33 138.224 202.028 138.445C201.739 138.665 201.516 139.082 201.359 139.694C201.214 140.295 201.142 141.183 201.142 142.359C201.142 143.523 201.214 144.418 201.359 145.042C201.516 145.667 201.739 146.102 202.028 146.347C202.33 146.58 202.698 146.696 203.132 146.696Z" fill="#0C4879"/>
<path d="M209.996 148.865V146.402L213.127 146.421L213.236 139.033H213.127L211.028 141.183L209.236 139.29L213.272 135.798L215.969 135.982V146.439L218.72 146.402V148.865H209.996Z" fill="#0C4879"/>
<path d="M220.199 148.865V146.402L223.33 146.421L223.438 139.033H223.33L221.23 141.183L219.439 139.29L223.475 135.798L226.171 135.982V146.439L228.922 146.402V148.865H220.199Z" fill="#0C4879"/>
<path d="M116.619 167.482C115.932 167.482 115.292 167.384 114.701 167.188C114.122 166.992 113.609 166.655 113.163 166.178C112.716 165.687 112.366 165.007 112.113 164.138C111.872 163.255 111.751 162.134 111.751 160.774C111.751 159.414 111.872 158.299 112.113 157.429C112.366 156.56 112.716 155.886 113.163 155.408C113.609 154.918 114.122 154.575 114.701 154.379C115.292 154.183 115.932 154.085 116.619 154.085C117.307 154.085 117.947 154.183 118.538 154.379C119.129 154.575 119.642 154.918 120.076 155.408C120.523 155.886 120.867 156.56 121.108 157.429C121.361 158.299 121.488 159.414 121.488 160.774C121.488 162.134 121.361 163.255 121.108 164.138C120.867 165.007 120.523 165.687 120.076 166.178C119.642 166.655 119.129 166.992 118.538 167.188C117.947 167.384 117.307 167.482 116.619 167.482ZM116.638 165.075C117.072 165.075 117.434 164.965 117.723 164.744C118.025 164.511 118.248 164.082 118.393 163.458C118.538 162.833 118.61 161.938 118.61 160.774C118.61 159.586 118.532 158.685 118.375 158.073C118.218 157.46 117.989 157.043 117.687 156.823C117.398 156.602 117.042 156.492 116.619 156.492C116.197 156.492 115.835 156.602 115.534 156.823C115.244 157.043 115.021 157.46 114.864 158.073C114.719 158.673 114.647 159.561 114.647 160.738C114.647 161.902 114.719 162.796 114.864 163.421C115.021 164.046 115.244 164.481 115.534 164.726C115.835 164.958 116.203 165.075 116.638 165.075Z" fill="#0C4879"/>
<path d="M123.502 167.244V164.781L126.633 164.799L126.741 157.411H126.633L124.533 159.561L122.741 157.668L126.777 154.176L129.474 154.36V164.818L132.225 164.781V167.244H123.502Z" fill="#0C4879"/>
<path d="M138.12 167.482C137.432 167.482 136.793 167.384 136.202 167.188C135.622 166.992 135.11 166.655 134.663 166.178C134.217 165.687 133.867 165.007 133.613 164.138C133.372 163.255 133.251 162.134 133.251 160.774C133.251 159.414 133.372 158.299 133.613 157.429C133.867 156.56 134.217 155.886 134.663 155.408C135.11 154.918 135.622 154.575 136.202 154.379C136.793 154.183 137.432 154.085 138.12 154.085C138.808 154.085 139.447 154.183 140.038 154.379C140.63 154.575 141.142 154.918 141.577 155.408C142.023 155.886 142.367 156.56 142.608 157.429C142.862 158.299 142.989 159.414 142.989 160.774C142.989 162.134 142.862 163.255 142.608 164.138C142.367 165.007 142.023 165.687 141.577 166.178C141.142 166.655 140.63 166.992 140.038 167.188C139.447 167.384 138.808 167.482 138.12 167.482ZM138.138 165.075C138.572 165.075 138.934 164.965 139.224 164.744C139.526 164.511 139.749 164.082 139.894 163.458C140.038 162.833 140.111 161.938 140.111 160.774C140.111 159.586 140.032 158.685 139.876 158.073C139.719 157.46 139.489 157.043 139.188 156.823C138.898 156.602 138.542 156.492 138.12 156.492C137.698 156.492 137.336 156.602 137.034 156.823C136.745 157.043 136.521 157.46 136.364 158.073C136.22 158.673 136.147 159.561 136.147 160.738C136.147 161.902 136.22 162.796 136.364 163.421C136.521 164.046 136.745 164.481 137.034 164.726C137.336 164.958 137.704 165.075 138.138 165.075Z" fill="#0C4879"/>
<path d="M145.002 167.244V164.781L148.133 164.799L148.242 157.411H148.133L146.034 159.561L144.242 157.668L148.278 154.176L150.975 154.36V164.818L153.726 164.781V167.244H145.002Z" fill="#0C4879"/>
<path d="M159.621 167.482C158.933 167.482 158.293 167.384 157.702 167.188C157.123 166.992 156.61 166.655 156.164 166.178C155.717 165.687 155.367 165.007 155.114 164.138C154.873 163.255 154.752 162.134 154.752 160.774C154.752 159.414 154.873 158.299 155.114 157.429C155.367 156.56 155.717 155.886 156.164 155.408C156.61 154.918 157.123 154.575 157.702 154.379C158.293 154.183 158.933 154.085 159.621 154.085C160.308 154.085 160.948 154.183 161.539 154.379C162.13 154.575 162.643 154.918 163.077 155.408C163.524 155.886 163.868 156.56 164.109 157.429C164.362 158.299 164.489 159.414 164.489 160.774C164.489 162.134 164.362 163.255 164.109 164.138C163.868 165.007 163.524 165.687 163.077 166.178C162.643 166.655 162.13 166.992 161.539 167.188C160.948 167.384 160.308 167.482 159.621 167.482ZM159.639 165.075C160.073 165.075 160.435 164.965 160.725 164.744C161.026 164.511 161.249 164.082 161.394 163.458C161.539 162.833 161.611 161.938 161.611 160.774C161.611 159.586 161.533 158.685 161.376 158.073C161.219 157.46 160.99 157.043 160.688 156.823C160.399 156.602 160.043 156.492 159.621 156.492C159.198 156.492 158.836 156.602 158.535 156.823C158.245 157.043 158.022 157.46 157.865 158.073C157.72 158.673 157.648 159.561 157.648 160.738C157.648 161.902 157.72 162.796 157.865 163.421C158.022 164.046 158.245 164.481 158.535 164.726C158.836 164.958 159.204 165.075 159.639 165.075Z" fill="#0C4879"/>
<path d="M170.919 167.482C170.231 167.482 169.592 167.384 169 167.188C168.421 166.992 167.908 166.655 167.462 166.178C167.016 165.687 166.666 165.007 166.412 164.138C166.171 163.255 166.05 162.134 166.05 160.774C166.05 159.414 166.171 158.299 166.412 157.429C166.666 156.56 167.016 155.886 167.462 155.408C167.908 154.918 168.421 154.575 169 154.379C169.592 154.183 170.231 154.085 170.919 154.085C171.607 154.085 172.246 154.183 172.837 154.379C173.428 154.575 173.941 154.918 174.376 155.408C174.822 155.886 175.166 156.56 175.407 157.429C175.661 158.299 175.787 159.414 175.787 160.774C175.787 162.134 175.661 163.255 175.407 164.138C175.166 165.007 174.822 165.687 174.376 166.178C173.941 166.655 173.428 166.992 172.837 167.188C172.246 167.384 171.607 167.482 170.919 167.482ZM170.937 165.075C171.371 165.075 171.733 164.965 172.023 164.744C172.324 164.511 172.548 164.082 172.692 163.458C172.837 162.833 172.91 161.938 172.91 160.774C172.91 159.586 172.831 158.685 172.674 158.073C172.517 157.46 172.288 157.043 171.987 156.823C171.697 156.602 171.341 156.492 170.919 156.492C170.496 156.492 170.135 156.602 169.833 156.823C169.543 157.043 169.32 157.46 169.163 158.073C169.018 158.673 168.946 159.561 168.946 160.738C168.946 161.902 169.018 162.796 169.163 163.421C169.32 164.046 169.543 164.481 169.833 164.726C170.135 164.958 170.503 165.075 170.937 165.075Z" fill="#0C4879"/>
<path d="M182.217 167.482C181.529 167.482 180.89 167.384 180.299 167.188C179.719 166.992 179.207 166.655 178.76 166.178C178.314 165.687 177.964 165.007 177.71 164.138C177.469 163.255 177.348 162.134 177.348 160.774C177.348 159.414 177.469 158.299 177.71 157.429C177.964 156.56 178.314 155.886 178.76 155.408C179.207 154.918 179.719 154.575 180.299 154.379C180.89 154.183 181.529 154.085 182.217 154.085C182.905 154.085 183.544 154.183 184.135 154.379C184.727 154.575 185.239 154.918 185.674 155.408C186.12 155.886 186.464 156.56 186.705 157.429C186.959 158.299 187.086 159.414 187.086 160.774C187.086 162.134 186.959 163.255 186.705 164.138C186.464 165.007 186.12 165.687 185.674 166.178C185.239 166.655 184.727 166.992 184.135 167.188C183.544 167.384 182.905 167.482 182.217 167.482ZM182.235 165.075C182.669 165.075 183.031 164.965 183.321 164.744C183.623 164.511 183.846 164.082 183.991 163.458C184.135 162.833 184.208 161.938 184.208 160.774C184.208 159.586 184.129 158.685 183.973 158.073C183.816 157.46 183.586 157.043 183.285 156.823C182.995 156.602 182.639 156.492 182.217 156.492C181.795 156.492 181.433 156.602 181.131 156.823C180.841 157.043 180.618 157.46 180.461 158.073C180.317 158.673 180.244 159.561 180.244 160.738C180.244 161.902 180.317 162.796 180.461 163.421C180.618 164.046 180.841 164.481 181.131 164.726C181.433 164.958 181.801 165.075 182.235 165.075Z" fill="#0C4879"/>
<path d="M189.099 167.244V164.781L192.23 164.799L192.339 157.411H192.23L190.131 159.561L188.339 157.668L192.375 154.176L195.072 154.36V164.818L197.823 164.781V167.244H189.099Z" fill="#0C4879"/>
<path d="M203.718 167.482C203.03 167.482 202.39 167.384 201.799 167.188C201.22 166.992 200.707 166.655 200.261 166.178C199.814 165.687 199.464 165.007 199.211 164.138C198.97 163.255 198.849 162.134 198.849 160.774C198.849 159.414 198.97 158.299 199.211 157.429C199.464 156.56 199.814 155.886 200.261 155.408C200.707 154.918 201.22 154.575 201.799 154.379C202.39 154.183 203.03 154.085 203.718 154.085C204.405 154.085 205.045 154.183 205.636 154.379C206.227 154.575 206.74 154.918 207.174 155.408C207.621 155.886 207.965 156.56 208.206 157.429C208.459 158.299 208.586 159.414 208.586 160.774C208.586 162.134 208.459 163.255 208.206 164.138C207.965 165.007 207.621 165.687 207.174 166.178C206.74 166.655 206.227 166.992 205.636 167.188C205.045 167.384 204.405 167.482 203.718 167.482ZM203.736 165.075C204.17 165.075 204.532 164.965 204.822 164.744C205.123 164.511 205.346 164.082 205.491 163.458C205.636 162.833 205.708 161.938 205.708 160.774C205.708 159.586 205.63 158.685 205.473 158.073C205.316 157.46 205.087 157.043 204.785 156.823C204.496 156.602 204.14 156.492 203.718 156.492C203.295 156.492 202.933 156.602 202.632 156.823C202.342 157.043 202.119 157.46 201.962 158.073C201.817 158.673 201.745 159.561 201.745 160.738C201.745 161.902 201.817 162.796 201.962 163.421C202.119 164.046 202.342 164.481 202.632 164.726C202.933 164.958 203.301 165.075 203.736 165.075Z" fill="#0C4879"/>
<path d="M210.6 167.244V164.781L213.731 164.799L213.839 157.411H213.731L211.631 159.561L209.84 157.668L213.876 154.176L216.572 154.36V164.818L219.323 164.781V167.244H210.6Z" fill="#0C4879"/>
<path d="M220.802 167.244V164.781L223.933 164.799L224.042 157.411H223.933L221.834 159.561L220.042 157.668L224.078 154.176L226.775 154.36V164.818L229.526 164.781V167.244H220.802Z" fill="#0C4879"/>
<path d="M163.649 69.1842L170.565 72.6441L175.672 65.6144C175.672 65.6144 176.446 64.6098 175.524 63.9227C174.603 63.2357 174.024 65.0138 174.024 65.0138L170.096 69.8997L165.053 66.965L163.649 69.1842Z" fill="#FDA57D"/>
<g opacity="0.5">
<path opacity="0.5" d="M166.837 70.7202L166.965 70.7844L171.086 72.843L176.338 65.6156C176.338 65.6156 177.133 64.5826 176.186 63.8758C175.239 63.169 174.644 64.9978 174.644 64.9978L170.601 70.022L167.181 68.0326L167.235 67.6149L164.113 65.5143C164.052 65.3824 163.986 65.2541 163.915 65.13L163.886 65.0064L163.73 64.847C163.7 64.8099 163.67 64.7753 163.64 64.7445L164.158 64.0933C164.541 64.2492 164.949 64.3057 165.354 64.2586C165.758 64.2116 166.148 64.0622 166.497 63.8209C166.847 63.5796 167.146 63.2524 167.374 62.8622C167.603 62.472 167.755 62.0284 167.82 61.5626C168.062 61.6161 168.31 61.6161 168.552 61.5626C168.87 61.4849 169.168 61.3193 169.419 61.0796C169.67 60.84 169.868 60.5335 169.996 60.1861C169.985 60.2096 169.97 60.23 169.952 60.2457C169.933 60.2613 169.912 60.2718 169.889 60.2763C169.929 60.1966 169.965 60.114 169.996 60.0291C169.889 60.3294 168.891 59.9155 168.741 59.8228C168.284 59.5411 168.049 59.1222 167.812 58.6106C167.346 57.5973 166.485 57.2229 165.516 57.1352C164.771 57.0672 164.014 57.1266 163.328 57.454C162.641 57.7815 162.036 58.4042 161.787 59.2173C161.705 59.4933 161.669 59.7846 161.681 60.0761C161.665 60.3887 161.71 60.7013 161.811 60.9912C161.913 61.2811 162.07 61.5409 162.269 61.7517C162.303 61.7855 162.338 61.8173 162.375 61.8468C162.396 61.9407 162.419 62.0322 162.447 62.1236L162.304 62.2867V62.2966L161.418 63.4087L161.372 63.3926L152.026 65.0163V65.0385C151.715 64.8001 150.307 63.9697 146.794 65.0979C145.467 65.5242 143.256 65.4784 140.883 65.2214C139.214 62.8156 138.145 55.3546 138.145 55.3546L137.726 53.2441L132.286 54.7046C132.286 54.7046 134.797 55.3534 135.215 56.1652C135.854 56.4123 136.248 61.9494 136.401 64.5678C133.144 63.9845 130.473 63.3148 130.473 63.3148L128.519 62.503L127.125 68.187C127.125 68.187 128.664 66.2409 130.056 66.074C130.056 66.074 137.032 69.9701 142.193 69.1632C144.199 68.8358 146.146 69.8243 147.773 70.132C149.198 70.4077 150.637 70.5704 152.081 70.6188L152.098 72.4044C152.098 72.4044 157.844 72.1165 161.616 70.7263C161.902 71.6271 162.132 72.2771 162.211 72.3228L162.896 71.9336L166.745 77.436L174.278 73.8649C174.278 73.8649 175.395 73.3781 174.836 72.2413C174.277 71.1044 173.027 72.4031 173.027 72.4031L167.447 74.6755L165.093 70.8845L165.001 70.7362L165.495 70.4545C165.495 70.4545 165.479 70.3705 165.45 70.2246L166.746 71.4307L166.837 70.7202Z" fill="url(#paint0_linear_1:2)"/>
</g>
<path d="M162.285 66.0753L160.56 64.2193L163.415 60.6248L165.14 62.4807L162.285 66.0753Z" fill="#FDA57D"/>
<path opacity="0.05" d="M163.279 60.7829L162.019 62.3695C162.155 62.8155 162.375 63.2204 162.664 63.5542C162.952 63.8881 163.302 64.1424 163.686 64.2984L165.005 62.6389L163.279 60.7829Z" fill="black"/>
<path d="M163.286 65.1856L166.814 67.5532L166.34 71.2639L163.015 68.1858L163.286 65.1856Z" fill="#0C4879"/>
<path d="M164.711 64.3169C166.209 64.3169 167.424 62.9034 167.424 61.1598C167.424 59.4161 166.209 58.0026 164.711 58.0026C163.212 58.0026 161.998 59.4161 161.998 61.1598C161.998 62.9034 163.212 64.3169 164.711 64.3169Z" fill="#FDA57D"/>
<path d="M162.472 63.9227L161.117 63.4482L152.026 65.0274L152.094 72.2116C152.094 72.2116 163.152 71.6593 164.374 68.344L163.56 65.0287L162.472 63.9227Z" fill="#0C4879"/>
<path opacity="0.05" d="M163.12 68.2822L166.34 71.2638L166.475 70.001L163.286 66.4484L163.12 68.2822Z" fill="black"/>
<path d="M152.093 65.1065C152.093 65.1065 150.871 63.8437 146.936 65.1065C143.002 66.3694 131.061 63.3704 131.061 63.3704L130.654 66.0543C130.654 66.0543 137.438 69.8441 142.458 69.0545C144.413 68.7468 146.302 69.7069 147.885 70.0023C149.275 70.2726 150.681 70.4307 152.091 70.4755L152.093 65.1065Z" fill="#071A3B"/>
<path d="M131.061 63.3692L129.162 62.5796L127.804 68.1067C127.804 68.1067 129.294 66.2125 130.654 66.0543L131.061 63.3692Z" fill="#0C4879"/>
<path d="M135.674 56.4234L138.523 55.6339C138.523 55.6339 139.88 65.1065 141.915 65.8961H136.895C136.895 65.8961 136.488 56.7385 135.674 56.4234Z" fill="#071A3B"/>
<path d="M138.523 55.6339L138.116 53.5814L132.824 54.9963C132.824 54.9963 135.272 55.6277 135.674 56.4173L138.523 55.6339Z" fill="#0C4879"/>
<path opacity="0.05" d="M165.143 57.5096C164.424 57.4441 163.682 57.501 163.015 57.8198C162.348 58.1386 161.759 58.7441 161.516 59.5349C161.272 60.3257 161.429 61.297 161.98 61.8419C162.111 61.9833 162.279 62.0702 162.457 62.089C162.746 62.1026 162.989 61.8567 163.211 61.6429C163.626 61.2442 164.084 60.9087 164.573 60.6445C164.989 60.4196 165.496 60.2541 165.89 60.5284C166.077 60.6594 166.209 60.8707 166.363 61.0498C166.588 61.3089 166.863 61.4999 167.166 61.6058C167.469 61.7118 167.79 61.7294 168.1 61.6572C168.41 61.585 168.7 61.4252 168.945 61.1919C169.189 60.9586 169.38 60.659 169.501 60.3195C169.395 60.6124 168.427 60.2083 168.282 60.1181C167.837 59.8438 167.607 59.4373 167.378 58.9393C166.923 57.9619 166.086 57.5912 165.143 57.5096Z" fill="black"/>
<path d="M165.143 57.3514C164.424 57.2859 163.682 57.3428 163.015 57.6616C162.348 57.9804 161.755 58.5797 161.516 59.3767C161.276 60.1737 161.429 61.1388 161.979 61.6837C162.111 61.8251 162.279 61.912 162.457 61.9308C162.746 61.9444 162.989 61.6985 163.211 61.4848C163.626 61.086 164.084 60.7505 164.572 60.4863C164.989 60.2614 165.496 60.0959 165.89 60.3702C166.077 60.5012 166.209 60.7125 166.363 60.8916C166.588 61.1507 166.863 61.3417 167.166 61.4476C167.469 61.5536 167.79 61.5712 168.1 61.499C168.41 61.4269 168.7 61.267 168.945 61.0337C169.189 60.8004 169.38 60.5008 169.501 60.1613C169.395 60.4542 168.427 60.0501 168.282 59.9599C167.837 59.6856 167.607 59.2791 167.378 58.7811C166.923 57.8012 166.086 57.4367 165.143 57.3514Z" fill="black"/>
<path d="M164.027 60.8986C164.079 60.6443 164.033 60.4138 163.924 60.3837C163.814 60.3536 163.684 60.5353 163.632 60.7897C163.58 61.044 163.626 61.2745 163.735 61.3046C163.845 61.3347 163.975 61.153 164.027 60.8986Z" fill="#FDA57D"/>
<path opacity="0.05" d="M162.596 71.7531L162.686 71.8829L164.727 70.7337L164.637 70.5904L162.596 71.7531Z" fill="black"/>
<path opacity="0.05" d="M166.762 67.9597L166.429 70.5533L166.553 70.6349L166.814 67.9893L166.762 67.9597Z" fill="black"/>
<path d="M156.027 61.3167H154.399V74.1046H156.027V61.3167Z" fill="#071A3B"/>
<path d="M155.485 62.7377H154.942V31.8559L155.477 31.8893L155.485 62.7377Z" fill="#071A3B"/>
<path d="M161.59 70.3185L166.339 77.1073L173.666 73.6338C173.666 73.6338 174.752 73.1606 174.204 72.0485C173.656 70.9364 172.44 72.2067 172.44 72.2067L167.013 74.4173L163.715 69.1039L161.59 70.3185Z" fill="#FDA57D"/>
<path d="M159.627 64.7123C159.627 64.7123 161.662 71.9744 161.934 72.1325L165.126 70.3173C165.126 70.3173 164.221 65.4191 163.211 64.6716C162.2 63.924 159.759 64.0797 159.627 64.7123Z" fill="#0C4879"/>
<path opacity="0.05" d="M160.204 66.7499C160.204 66.7499 160.097 69.5277 160.776 70.001L160.204 66.7499Z" fill="black"/>
<path d="M167.386 62.3134L167.032 62.0399L166.438 63.0773L166.793 63.3508L167.386 62.3134Z" fill="black"/>
<path d="M166.896 62.2597L164.272 60.2338L164.154 60.4396L166.778 62.4655L166.896 62.2597Z" fill="black"/>
<path d="M54.2577 58.5719L51.72 55.3254" stroke="#8F0C3C" stroke-width="2" stroke-linecap="round"/>
<path d="M47.5339 43.1967L48.4842 47.2382" stroke="#8F0C3C" stroke-width="2" stroke-linecap="round"/>
<path d="M57.5217 52.5921L53.46 52.4855" stroke="#8F0C3C" stroke-width="2" stroke-linecap="round"/>
<path d="M45.3039 53.4588L41.417 54.6693" stroke="#8F0C3C" stroke-width="2" stroke-linecap="round"/>
<path d="M49.4695 55.7479C51.8018 55.7479 53.6925 53.828 53.6925 51.4596C53.6925 49.0912 51.8018 47.1713 49.4695 47.1713C47.1372 47.1713 45.2465 49.0912 45.2465 51.4596C45.2465 53.828 47.1372 55.7479 49.4695 55.7479Z" fill="#E11955"/>
<path d="M47.2988 43.4155C48.5579 42.9718 49.2243 41.5756 48.7874 40.2971C48.3504 39.0186 46.9755 38.3418 45.7164 38.7855C44.4573 39.2292 43.7909 40.6254 44.2278 41.9039C44.6648 43.1825 46.0397 43.8592 47.2988 43.4155Z" fill="#E11955"/>
<path d="M58.5188 54.5227C59.8515 54.5227 60.9319 53.4255 60.9319 52.0722C60.9319 50.7189 59.8515 49.6217 58.5188 49.6217C57.1861 49.6217 56.1057 50.7189 56.1057 52.0722C56.1057 53.4255 57.1861 54.5227 58.5188 54.5227Z" fill="#E11955"/>
<path d="M39.4158 57.4978C40.6795 57.0677 41.3605 55.6788 40.9369 54.3956C40.5134 53.1124 39.1456 52.4209 37.882 52.851C36.6183 53.2811 35.9373 54.67 36.3609 55.9532C36.7844 57.2364 38.1522 57.9279 39.4158 57.4978Z" fill="#E11955"/>
<path d="M56.1056 62.4865C57.4383 62.4865 58.5187 61.3894 58.5187 60.0361C58.5187 58.6828 57.4383 57.5857 56.1056 57.5857C54.7729 57.5857 53.6925 58.6828 53.6925 60.0361C53.6925 61.3894 54.7729 62.4865 56.1056 62.4865Z" fill="#E11955"/>
<path d="M48.8947 71.3308L48.3086 75.429" stroke="#8F0C3C" stroke-width="1.99989" stroke-linecap="round"/>
<path d="M42.4974 86.8403L44.7347 83.3786" stroke="#8F0C3C" stroke-width="1.99998" stroke-linecap="round"/>
<path d="M42.3728 73.0059L45.0925 76.0932" stroke="#8F0C3C" stroke-width="2" stroke-linecap="round"/>
<path d="M51.3695 81.4438L54.9143 83.4932" stroke="#8F0C3C" stroke-width="1.99997" stroke-linecap="round"/>
<path d="M50.1575 76.8033C48.5588 75.0803 45.8862 75.0007 44.1879 76.6256C42.4896 78.2505 42.4089 80.9645 44.0075 82.6875C45.6062 84.4105 48.2788 84.49 49.9771 82.8652C51.6754 81.2403 51.7561 78.5263 50.1575 76.8033Z" fill="#E11955"/>
<path d="M42.8063 86.8652C41.6253 86.2394 40.1676 86.705 39.5504 87.9051C38.9332 89.1053 39.3903 90.5856 40.5713 91.2114C41.7523 91.8372 43.21 91.3716 43.8272 90.1715C44.4444 88.9713 43.9873 87.491 42.8063 86.8652Z" fill="#E11955"/>
<path d="M43.0731 70.9559C42.1596 69.9713 40.6324 69.9259 39.6619 70.8544C38.6915 71.7829 38.6454 73.3337 39.5589 74.3183C40.4724 75.3029 41.9996 75.3483 42.9701 74.4198C43.9405 73.4913 43.9866 71.9405 43.0731 70.9559Z" fill="#E11955"/>
<path d="M58.3056 83.0344C57.1312 82.3958 55.6687 82.8457 55.039 84.0391C54.4093 85.2326 54.8508 86.7177 56.0252 87.3562C57.1996 87.9948 58.6621 87.5449 59.2918 86.3515C59.9215 85.158 59.48 83.6729 58.3056 83.0344Z" fill="#E11955"/>
<path d="M50.436 67.2781C49.5225 66.2935 47.9953 66.2481 47.0248 67.1766C46.0544 68.1051 46.0083 69.6559 46.9218 70.6405C47.8353 71.6251 49.3625 71.6705 50.333 70.742C51.3034 69.8135 51.3495 68.2627 50.436 67.2781Z" fill="#E11955"/>
<path d="M68.8772 86.6285L69.6145 82.5558" stroke="#8F0C3C" stroke-width="1.9999" stroke-linecap="round"/>
<path d="M75.8431 71.3743L73.4799 74.7473" stroke="#8F0C3C" stroke-width="1.99999" stroke-linecap="round"/>
<path d="M75.4562 85.2044L72.852 82.0146" stroke="#8F0C3C" stroke-width="2" stroke-linecap="round"/>
<path d="M66.7785 76.429L63.3112 74.2452" stroke="#8F0C3C" stroke-width="1.99998" stroke-linecap="round"/>
<path d="M67.8161 81.1136C69.3488 82.8954 72.0166 83.0754 73.7748 81.5154C75.5329 79.9555 75.7155 77.2465 74.1827 75.4646C72.65 73.6828 69.9822 73.5028 68.224 75.0627C66.4659 76.6227 66.2833 79.3317 67.8161 81.1136Z" fill="#E11955"/>
<path d="M75.5351 71.3385C76.6915 72.0084 78.1654 71.5978 78.8271 70.4215C79.4888 69.2451 79.0878 67.7485 77.9313 67.0785C76.7749 66.4086 75.301 66.8192 74.6393 67.9955C73.9776 69.1719 74.3786 70.6685 75.5351 71.3385Z" fill="#E11955"/>
<path d="M74.6798 87.2264C75.5556 88.2446 77.0801 88.3474 78.0847 87.456C79.0893 86.5647 79.1937 85.0166 78.3178 83.9984C77.442 82.9802 75.9175 82.8774 74.9129 83.7688C73.9083 84.6601 73.8039 86.2082 74.6798 87.2264Z" fill="#E11955"/>
<path d="M59.905 74.5753C61.0544 75.2576 62.5325 74.863 63.2064 73.6938C63.8804 72.5247 63.495 71.0237 62.3456 70.3413C61.1962 69.659 59.7181 70.0536 59.0442 71.2228C58.3702 72.3919 58.7556 73.8929 59.905 74.5753Z" fill="#E11955"/>
<path d="M67.1858 90.6207C68.0617 91.6389 69.5862 91.7417 70.5908 90.8503C71.5954 89.959 71.6998 88.4109 70.824 87.3927C69.9481 86.3745 68.4236 86.2717 67.419 87.1631C66.4143 88.0545 66.31 89.6025 67.1858 90.6207Z" fill="#E11955"/>
<path d="M74.2016 104.32L78.1298 105.437" stroke="#8F0C3C" stroke-width="1.99992" stroke-linecap="round"/>
<path d="M88.5267 112.761L85.4298 110.06" stroke="#8F0C3C" stroke-width="2.00001" stroke-linecap="round"/>
<path d="M75.0037 111.105L78.3637 108.766" stroke="#8F0C3C" stroke-width="2" stroke-linecap="round"/>
<path d="M84.3999 103.128L86.8542 99.8258" stroke="#8F0C3C" stroke-width="2" stroke-linecap="round"/>
<path d="M79.717 103.762C77.8242 105.155 77.3956 107.836 78.7597 109.75C80.1239 111.664 82.7641 112.087 84.657 110.694C86.5498 109.301 86.9784 106.62 85.6143 104.706C84.2501 102.792 81.6099 102.369 79.717 103.762Z" fill="#E11955"/>
<path d="M88.5951 112.454C87.8295 113.566 88.0925 115.093 89.1827 115.867C90.2729 116.64 91.7774 116.365 92.5431 115.254C93.3088 114.142 93.0457 112.615 91.9555 111.841C90.8653 111.068 89.3608 111.343 88.5951 112.454Z" fill="#E11955"/>
<path d="M73.0923 110.14C72.0107 110.936 71.7658 112.468 72.5453 113.562C73.3248 114.656 74.8335 114.898 75.9151 114.102C76.9967 113.306 77.2416 111.774 76.4621 110.68C75.6826 109.586 74.1739 109.344 73.0923 110.14Z" fill="#E11955"/>
<path d="M86.8463 96.3534C86.0691 97.4565 86.3162 98.9871 87.3982 99.7719C88.4803 100.557 89.9875 100.299 90.7647 99.1954C91.5419 98.0923 91.2948 96.5617 90.2128 95.7769C89.1307 94.9921 87.6235 95.2502 86.8463 96.3534Z" fill="#E11955"/>
<path d="M70.447 102.252C69.3654 103.048 69.1205 104.58 69.9 105.674C70.6795 106.768 72.1882 107.01 73.2698 106.214C74.3514 105.418 74.5963 103.886 73.8168 102.792C73.0373 101.698 71.5286 101.456 70.447 102.252Z" fill="#E11955"/>
<path d="M67.8698 164.756L67.0442 160.698" stroke="#8F0C3C" stroke-width="1.9999" stroke-linecap="round"/>
<path d="M68.6824 147.957L67.7395 151.994" stroke="#8F0C3C" stroke-width="1.99994" stroke-linecap="round"/>
<path d="M73.4372 160.915L69.8526 158.96" stroke="#8F0C3C" stroke-width="2.00001" stroke-linecap="round"/>
<path d="M62.1455 156.1L58.1332 155.402" stroke="#8F0C3C" stroke-width="1.99993" stroke-linecap="round"/>
<path d="M64.8583 160.034C66.947 161.107 69.4866 160.268 70.5308 158.16C71.5749 156.052 70.7282 153.473 68.6395 152.4C66.5508 151.327 64.0112 152.166 62.967 154.274C61.9229 156.382 62.7696 158.961 64.8583 160.034Z" fill="#E11955"/>
<path d="M68.3866 148.035C69.7118 148.219 70.9261 147.284 71.0988 145.947C71.2714 144.61 70.3369 143.377 69.0117 143.193C67.6864 143.009 66.4721 143.944 66.2995 145.281C66.1268 146.618 67.0613 147.851 68.3866 148.035Z" fill="#E11955"/>
<path d="M73.4764 163.084C74.6699 163.697 76.1211 163.218 76.7178 162.013C77.3144 160.809 76.8306 159.335 75.637 158.722C74.4435 158.109 72.9923 158.588 72.3957 159.793C71.799 160.997 72.2828 162.471 73.4764 163.084Z" fill="#E11955"/>
<path d="M55.1023 157.002C56.4256 157.201 57.6497 156.279 57.8364 154.944C58.023 153.609 57.1016 152.366 55.7783 152.168C54.455 151.969 53.2309 152.891 53.0442 154.226C52.8576 155.561 53.779 156.804 55.1023 157.002Z" fill="#E11955"/>
<path d="M67.7895 169.091C68.983 169.704 70.4342 169.225 71.0309 168.02C71.6275 166.816 71.1437 165.342 69.9501 164.729C68.7566 164.116 67.3054 164.595 66.7087 165.8C66.1121 167.004 66.5959 168.478 67.7895 169.091Z" fill="#E11955"/>
<path d="M115.69 91.179L117.381 87.4125" stroke="#8F0C3C" stroke-width="1.99995" stroke-linecap="round"/>
<path d="M126.098 78.1054L123.002 80.7887" stroke="#8F0C3C" stroke-width="2.00003" stroke-linecap="round"/>
<path d="M122.41 91.4288L120.646 87.685" stroke="#8F0C3C" stroke-width="1.99999" stroke-linecap="round"/>
<path d="M116.099 80.7719L113.255 77.7925" stroke="#8F0C3C" stroke-width="2.00003" stroke-linecap="round"/>
<path d="M115.975 85.5772C117.029 87.68 119.573 88.5062 121.656 87.4226C123.74 86.339 124.574 83.756 123.519 81.6532C122.465 79.5504 119.921 78.7242 117.838 79.8078C115.754 80.8914 114.92 83.4744 115.975 85.5772Z" fill="#E11955"/>
<path d="M125.808 78C126.767 78.9333 128.294 78.8953 129.22 77.9151C130.146 76.935 130.12 75.3837 129.162 74.4504C128.203 73.5171 126.676 73.5551 125.75 74.5353C124.824 75.5154 124.85 77.0667 125.808 78Z" fill="#E11955"/>
<path d="M121.169 93.1989C121.772 94.4004 123.226 94.8726 124.416 94.2534C125.607 93.6342 126.083 92.1581 125.481 90.9565C124.878 89.755 123.424 89.2828 122.234 89.902C121.043 90.5212 120.567 91.9973 121.169 93.1989Z" fill="#E11955"/>
<path d="M109.873 77.2756C110.822 78.2192 112.349 78.1977 113.285 77.2275C114.222 76.2573 114.212 74.7059 113.263 73.7622C112.314 72.8186 110.787 72.8401 109.851 73.8103C108.914 74.7805 108.924 76.3319 109.873 77.2756Z" fill="#E11955"/>
<path d="M113.087 94.6384C113.69 95.84 115.144 96.3122 116.334 95.693C117.525 95.0738 118.001 93.5977 117.399 92.3961C116.796 91.1946 115.342 90.7224 114.152 91.3416C112.961 91.9608 112.485 93.4369 113.087 94.6384Z" fill="#E11955"/>
<path d="M99.8963 159.829L98.0158 156.15" stroke="#8F0C3C" stroke-width="1.99997" stroke-linecap="round"/>
<path d="M96.1871 143.436L96.3599 147.586" stroke="#8F0C3C" stroke-width="1.99996" stroke-linecap="round"/>
<path d="M104.225 154.593L100.258 153.701" stroke="#8F0C3C" stroke-width="2" stroke-linecap="round"/>
<path d="M92.0692 153.075L88.0252 153.51" stroke="#8F0C3C" stroke-width="1.99995" stroke-linecap="round"/>
<path d="M95.737 156.119C98.0316 156.577 100.248 155.068 100.689 152.749C101.129 150.429 99.6254 148.178 97.3308 147.721C95.0362 147.263 92.8193 148.772 92.3792 151.091C91.9391 153.411 93.4424 155.662 95.737 156.119Z" fill="#E11955"/>
<path d="M95.9209 143.609C97.2372 143.421 98.1491 142.179 97.9576 140.836C97.766 139.493 96.5437 138.557 95.2273 138.745C93.911 138.933 92.9991 140.175 93.1906 141.518C93.3822 142.861 94.6045 143.797 95.9209 143.609Z" fill="#E11955"/>
<path d="M104.847 156.676C106.158 156.937 107.425 156.075 107.676 154.75C107.928 153.424 107.069 152.138 105.757 151.876C104.446 151.615 103.179 152.477 102.928 153.802C102.676 155.128 103.535 156.414 104.847 156.676Z" fill="#E11955"/>
<path d="M85.5354 155.904C86.8536 155.731 87.7783 154.499 87.6008 153.154C87.4233 151.809 86.2107 150.86 84.8924 151.034C83.5742 151.207 82.6495 152.439 82.827 153.784C83.0045 155.129 84.2171 156.078 85.5354 155.904Z" fill="#E11955"/>
<path d="M100.98 164.025C102.291 164.286 103.558 163.424 103.809 162.099C104.061 160.773 103.202 159.487 101.89 159.225C100.579 158.964 99.3124 159.826 99.0609 161.151C98.8094 162.477 99.6684 163.763 100.98 164.025Z" fill="#E11955"/>
<path d="M58.6761 98.434L56.7198 102.065" stroke="#8F0C3C" stroke-width="1.99997" stroke-linecap="round"/>
<path d="M47.3593 110.703L50.6383 108.257" stroke="#8F0C3C" stroke-width="2.00003" stroke-linecap="round"/>
<path d="M51.9927 97.6867L53.4843 101.553" stroke="#8F0C3C" stroke-width="1.99999" stroke-linecap="round"/>
<path d="M57.5224 108.783L60.1455 111.965" stroke="#8F0C3C" stroke-width="2.00004" stroke-linecap="round"/>
<path d="M57.9911 103.998C57.0912 101.823 54.6142 100.812 52.4586 101.74C50.303 102.667 49.285 105.183 50.1849 107.358C51.0848 109.533 53.5618 110.544 55.7174 109.616C57.873 108.689 58.891 106.173 57.9911 103.998Z" fill="#E11955"/>
<path d="M47.6397 110.829C46.7513 109.827 45.2254 109.753 44.2317 110.662C43.2379 111.572 43.1526 113.121 44.0411 114.123C44.9295 115.125 46.4554 115.199 47.4491 114.29C48.4429 113.38 48.5282 111.831 47.6397 110.829Z" fill="#E11955"/>
<path d="M53.3564 96.0131C52.8422 94.7702 51.4268 94.1923 50.195 94.7224C48.9632 95.2525 48.3815 96.6898 48.8958 97.9327C49.41 99.1756 50.8254 99.7535 52.0572 99.2234C53.289 98.6933 53.8707 97.256 53.3564 96.0131Z" fill="#E11955"/>
<path d="M63.4812 112.73C62.6033 111.718 61.0784 111.627 60.0752 112.526C59.072 113.425 58.9705 114.973 59.8484 115.984C60.7263 116.996 62.2512 117.087 63.2544 116.188C64.2576 115.289 64.3591 113.741 63.4812 112.73Z" fill="#E11955"/>
<path d="M61.5204 95.175C61.0062 93.9321 59.5908 93.3542 58.359 93.8843C57.1272 94.4144 56.5455 95.8517 57.0598 97.0946C57.574 98.3375 58.9894 98.9154 60.2212 98.3853C61.453 97.8552 62.0347 96.4179 61.5204 95.175Z" fill="#E11955"/>
<path d="M67.764 134.52L64.0662 132.768" stroke="#8F0C3C" stroke-width="1.99995" stroke-linecap="round"/>
<path d="M54.9816 123.822L57.6071 127.002" stroke="#8F0C3C" stroke-width="2.00003" stroke-linecap="round"/>
<path d="M68.0562 127.691L64.3703 129.442" stroke="#8F0C3C" stroke-width="1.99999" stroke-linecap="round"/>
<path d="M57.5078 134.01L54.5598 136.861" stroke="#8F0C3C" stroke-width="2.00003" stroke-linecap="round"/>
<path d="M62.2264 134.155C64.3191 133.09 65.1757 130.515 64.1396 128.402C63.1036 126.29 60.5672 125.442 58.4744 126.507C56.3817 127.572 55.5251 130.147 56.5612 132.26C57.5972 134.372 60.1336 135.22 62.2264 134.155Z" fill="#E11955"/>
<path d="M54.8618 124.114C55.7962 123.142 55.7835 121.591 54.8333 120.649C53.8831 119.707 52.3553 119.732 51.4208 120.704C50.4864 121.676 50.4991 123.227 51.4493 124.169C52.3995 125.111 53.9273 125.086 54.8618 124.114Z" fill="#E11955"/>
<path d="M69.7872 128.957C70.983 128.349 71.4725 126.877 70.8805 125.67C70.2884 124.463 68.8391 123.978 67.6432 124.587C66.4474 125.195 65.9579 126.667 66.5499 127.874C67.142 129.081 68.5913 129.566 69.7872 128.957Z" fill="#E11955"/>
<path d="M54.0083 140.289C54.9528 139.327 54.9563 137.775 54.016 136.823C53.0757 135.871 51.5478 135.879 50.6033 136.841C49.6588 137.803 49.6553 139.355 50.5956 140.307C51.5359 141.259 53.0638 141.251 54.0083 140.289Z" fill="#E11955"/>
<path d="M71.1338 137.177C72.3296 136.569 72.8191 135.097 72.2271 133.89C71.635 132.683 70.1857 132.198 68.9898 132.807C67.794 133.415 67.3045 134.887 67.8965 136.094C68.4886 137.301 69.9379 137.786 71.1338 137.177Z" fill="#E11955"/>
<path d="M101.108 59.4152L105.178 59.1747" stroke="#8F0C3C" stroke-width="1.99988" stroke-linecap="round"/>
<path d="M117.353 62.659L113.568 61.1306" stroke="#8F0C3C" stroke-width="1.99995" stroke-linecap="round"/>
<path d="M104.031 65.566L106.465 62.2367" stroke="#8F0C3C" stroke-width="2" stroke-linecap="round"/>
<path d="M110.364 54.9218L111.629 50.9804" stroke="#8F0C3C" stroke-width="1.99993" stroke-linecap="round"/>
<path d="M106.127 57.0523C104.79 58.9855 105.255 61.6604 107.167 63.0267C109.079 64.3931 111.714 63.9336 113.051 62.0003C114.388 60.0671 113.923 57.3922 112.011 56.0259C110.099 54.6595 107.464 55.119 106.127 57.0523Z" fill="#E11955"/>
<path d="M117.312 62.3451C116.948 63.6435 117.694 65.0001 118.978 65.3752C120.262 65.7503 121.598 65.0018 121.962 63.7033C122.326 62.4049 121.58 61.0483 120.296 60.6732C119.012 60.2981 117.676 61.0466 117.312 62.3451Z" fill="#E11955"/>
<path d="M101.912 65.2774C101.148 66.3821 101.414 67.9106 102.506 68.6913C103.599 69.4721 105.104 69.2095 105.868 68.1048C106.632 67.0001 106.366 65.4716 105.274 64.6909C104.181 63.9101 102.676 64.1727 101.912 65.2774Z" fill="#E11955"/>
<path d="M110.502 47.6971C110.125 48.9915 110.856 50.3561 112.136 50.745C113.416 51.1338 114.76 50.3997 115.138 49.1053C115.515 47.8109 114.784 46.4463 113.504 46.0574C112.224 45.6686 110.88 46.4027 110.502 47.6971Z" fill="#E11955"/>
<path d="M96.8844 58.6922C96.1202 59.7969 96.3864 61.3254 97.4789 62.1062C98.5715 62.8869 100.077 62.6243 100.841 61.5196C101.605 60.4149 101.339 58.8864 100.246 58.1057C99.1539 57.3249 97.6487 57.5875 96.8844 58.6922Z" fill="#E11955"/>
<path d="M89.7647 53.3887L86.1556 55.3102" stroke="#8F0C3C" stroke-width="1.99997" stroke-linecap="round"/>
<path d="M73.653 57.2358L77.7142 57.0446" stroke="#8F0C3C" stroke-width="1.99996" stroke-linecap="round"/>
<path d="M84.6122 49.0047L83.7432 53.0671" stroke="#8F0C3C" stroke-width="2.00001" stroke-linecap="round"/>
<path d="M83.16 61.3529L83.6071 65.4812" stroke="#8F0C3C" stroke-width="1.99996" stroke-linecap="round"/>
<path d="M86.1516 57.6484C86.5825 55.3273 85.0703 53.0823 82.774 52.6341C80.4778 52.1859 78.2669 53.7042 77.836 56.0254C77.4051 58.3465 78.9173 60.5915 81.2135 61.0397C83.5098 61.4879 85.7207 59.9696 86.1516 57.6484Z" fill="#E11955"/>
<path d="M73.8008 57.5046C73.604 56.1623 72.3779 55.2312 71.0622 55.4248C69.7466 55.6184 68.8396 56.8634 69.0364 58.2056C69.2333 59.5479 70.4593 60.479 71.775 60.2854C73.0906 60.0918 73.9976 58.8468 73.8008 57.5046Z" fill="#E11955"/>
<path d="M86.6541 48.3879C86.9003 47.0616 86.0362 45.7787 84.724 45.5226C83.4119 45.2665 82.1486 46.1341 81.9023 47.4605C81.6561 48.7868 82.5202 50.0697 83.8323 50.3258C85.1445 50.5819 86.4078 49.7143 86.6541 48.3879Z" fill="#E11955"/>
<path d="M85.9504 68.0009C85.7676 66.6566 84.5513 65.7122 83.2337 65.8916C81.9161 66.0709 80.9962 67.3061 81.179 68.6503C81.3618 69.9946 82.5781 70.939 83.8957 70.7596C85.2133 70.5803 86.1332 69.3451 85.9504 68.0009Z" fill="#E11955"/>
<path d="M93.9074 52.284C94.1536 50.9577 93.2895 49.6748 91.9774 49.4187C90.6652 49.1626 89.4019 50.0302 89.1556 51.3566C88.9094 52.6829 89.7735 53.9658 91.0856 54.2219C92.3978 54.478 93.6611 53.6104 93.9074 52.284Z" fill="#E11955"/>
<path d="M102.301 89.4846L99.2207 86.7658" stroke="#8F0C3C" stroke-width="2" stroke-linecap="round"/>
<path d="M92.9152 75.6224L94.5787 79.4176" stroke="#8F0C3C" stroke-width="2.00003" stroke-linecap="round"/>
<path d="M104.431 82.9988L100.417 83.6505" stroke="#8F0C3C" stroke-width="2" stroke-linecap="round"/>
<path d="M92.5771 86.1253L88.9738 88.0394" stroke="#8F0C3C" stroke-width="2.00003" stroke-linecap="round"/>
<path d="M97.0754 87.5902C99.3732 87.1506 100.893 84.9112 100.471 82.5883C100.048 80.2655 97.8428 78.7388 95.545 79.1784C93.2472 79.618 91.7271 81.8574 92.1497 84.1803C92.5723 86.5031 94.7776 88.0298 97.0754 87.5902Z" fill="#E11955"/>
<path d="M92.7194 75.876C93.8795 75.2027 94.2865 73.7062 93.6286 72.5333C92.9706 71.3604 91.4968 70.9554 90.3368 71.6286C89.1767 72.3019 88.7697 73.7984 89.4276 74.9713C90.0856 76.1442 91.5594 76.5492 92.7194 75.876Z" fill="#E11955"/>
<path d="M105.754 84.7051C107.067 84.4538 107.936 83.1742 107.694 81.8469C107.453 80.5195 106.193 79.6471 104.88 79.8983C103.567 80.1496 102.698 81.4292 102.94 82.7565C103.181 84.0839 104.441 84.9563 105.754 84.7051Z" fill="#E11955"/>
<path d="M87.5127 91.1871C88.6797 90.5264 89.1024 89.0342 88.4568 87.8543C87.8111 86.6744 86.3417 86.2535 85.1747 86.9143C84.0077 87.575 83.585 89.0672 84.2306 90.2471C84.8763 91.427 86.3457 91.8479 87.5127 91.1871Z" fill="#E11955"/>
<path d="M104.819 92.9834C106.132 92.7322 107.001 91.4525 106.759 90.1251C106.518 88.7978 105.258 87.9254 103.945 88.1766C102.632 88.4278 101.763 89.7075 102.005 91.0348C102.246 92.3622 103.506 93.2346 104.819 92.9834Z" fill="#E11955"/>
<path d="M80.2964 138.057L82.616 134.654" stroke="#8F0C3C" stroke-width="1.99999" stroke-linecap="round"/>
<path d="M92.8142 127.057L89.3026 129.141" stroke="#8F0C3C" stroke-width="2.00003" stroke-linecap="round"/>
<path d="M86.8648 139.512L85.7797 135.507" stroke="#8F0C3C" stroke-width="1.99999" stroke-linecap="round"/>
<path d="M82.5098 127.889L80.2284 124.443" stroke="#8F0C3C" stroke-width="2.00004" stroke-linecap="round"/>
<path d="M81.5525 132.597C82.2226 134.856 84.5806 136.125 86.8191 135.431C89.0575 134.737 90.3289 132.343 89.6587 130.083C88.9886 127.824 86.6306 126.555 84.3921 127.249C82.1537 127.943 80.8823 130.337 81.5525 132.597Z" fill="#E11955"/>
<path d="M92.5507 126.904C93.3308 127.995 94.84 128.232 95.9214 127.433C97.0029 126.634 97.2471 125.101 96.4669 124.01C95.6868 122.919 94.1776 122.682 93.0962 123.481C92.0147 124.28 91.7705 125.813 92.5507 126.904Z" fill="#E11955"/>
<path d="M85.3377 141.03C85.7207 142.321 87.0681 143.047 88.3472 142.65C89.6263 142.253 90.3528 140.885 89.9699 139.594C89.5869 138.303 88.2395 137.577 86.9604 137.974C85.6813 138.371 84.9548 139.739 85.3377 141.03Z" fill="#E11955"/>
<path d="M76.9922 123.329C77.7609 124.428 79.2674 124.682 80.3571 123.894C81.4468 123.107 81.707 121.577 80.9384 120.477C80.1697 119.378 78.6632 119.124 77.5735 119.912C76.4838 120.699 76.2235 122.229 76.9922 123.329Z" fill="#E11955"/>
<path d="M77.1322 140.996C77.5152 142.287 78.8626 143.013 80.1417 142.616C81.4208 142.219 82.1473 140.851 81.7644 139.56C81.3814 138.269 80.034 137.543 78.7549 137.94C77.4758 138.337 76.7493 139.705 77.1322 140.996Z" fill="#E11955"/>
<path d="M107.155 134.199L110.396 131.692" stroke="#8F0C3C" stroke-width="2" stroke-linecap="round"/>
<path d="M122.407 127.67L118.435 128.548" stroke="#8F0C3C" stroke-width="2" stroke-linecap="round"/>
<path d="M112.956 137.647L113.144 133.495" stroke="#8F0C3C" stroke-width="2" stroke-linecap="round"/>
<path d="M112.355 125.227L111.235 121.232" stroke="#8F0C3C" stroke-width="1.99999" stroke-linecap="round"/>
<path d="M110.026 129.393C109.979 131.76 111.833 133.718 114.165 133.766C116.498 133.814 118.426 131.935 118.472 129.567C118.519 127.2 116.665 125.242 114.333 125.194C112 125.146 110.072 127.025 110.026 129.393Z" fill="#E11955"/>
<path d="M122.212 127.437C122.624 128.724 123.986 129.429 125.253 129.012C126.521 128.594 127.214 127.212 126.802 125.924C126.391 124.637 125.029 123.932 123.762 124.35C122.494 124.768 121.801 126.15 122.212 127.437Z" fill="#E11955"/>
<path d="M111.051 138.605C111.024 139.958 112.083 141.077 113.416 141.104C114.749 141.132 115.851 140.058 115.877 138.705C115.904 137.352 114.845 136.233 113.512 136.206C112.179 136.178 111.077 137.252 111.051 138.605Z" fill="#E11955"/>
<path d="M108.506 119.151C108.904 120.443 110.258 121.162 111.53 120.758C112.802 120.354 113.51 118.98 113.111 117.688C112.713 116.397 111.359 115.677 110.087 116.081C108.815 116.485 108.107 117.86 108.506 119.151Z" fill="#E11955"/>
<path d="M103.259 135.995C103.232 137.348 104.291 138.467 105.624 138.494C106.957 138.522 108.059 137.448 108.085 136.095C108.112 134.742 107.053 133.623 105.72 133.596C104.387 133.568 103.285 134.642 103.259 135.995Z" fill="#E11955"/>
<path d="M26.6749 32.5134C26.6766 32.5117 26.6795 32.5089 26.6795 32.5089L234.475 31.8575C234.477 31.8587 234.479 31.8616 234.479 31.8616C234.491 31.8732 234.501 31.8885 234.509 31.9054C234.514 31.9186 234.521 31.941 234.522 31.9826L234.956 179.222L27.0673 179.874L26.6332 32.6353C26.6331 32.5938 26.6403 32.5712 26.6458 32.5579C26.6529 32.5407 26.6633 32.5252 26.6749 32.5134Z" stroke="#071A3B" stroke-width="12"/>
<path d="M0.519938 190.732C0.520097 187.351 3.22123 184.611 6.55308 184.61L254.922 184.597C258.254 184.597 260.954 187.337 260.954 190.718V193.535C260.954 196.915 258.253 199.656 254.921 199.656L6.55237 199.669C3.22052 199.669 0.519647 196.929 0.519806 193.548L0.519938 190.732Z" fill="#071A3B"/>
<path d="M51.485 6.0123C52.8808 8.99943 49.9231 9.84554 46.5349 11.4466C43.1468 13.0477 40.6113 14.7974 39.2155 11.8103C37.8197 8.82314 36.6872 2.89423 41.4803 0.629251C46.4385 -1.71376 50.0892 3.02517 51.485 6.0123Z" fill="#2F2E41"/>
<path d="M44.5723 11.8868C47.0913 11.8868 49.1334 9.83319 49.1334 7.29996C49.1334 4.76673 47.0913 2.71313 44.5723 2.71313C42.0532 2.71313 40.0111 4.76673 40.0111 7.29996C40.0111 9.83319 42.0532 11.8868 44.5723 11.8868Z" fill="#FFB8B8"/>
<path d="M39.6124 9.14668L41.2451 8.37513L41.0176 6.00649L42.1094 7.96668L42.8898 7.59791L42.7571 6.2162L43.394 7.35964L49.1926 4.6195C48.648 3.454 47.6653 2.55379 46.4607 2.11692C45.256 1.68005 43.9282 1.74231 42.7692 2.28998L41.9288 2.68711C40.7699 3.23479 39.8747 4.22303 39.4403 5.43444C39.0058 6.64584 39.0678 7.98117 39.6124 9.14668Z" fill="#2F2E41"/>
<path d="M69.8859 24.6348C69.7376 24.3925 69.5417 24.183 69.3102 24.0193C69.0787 23.8555 68.8165 23.7409 68.5395 23.6824C68.438 23.661 68.3349 23.6478 68.2313 23.6432L54.0823 10.9216C53.8043 10.6344 53.4336 10.4562 53.0368 10.4193C52.9585 10.4102 52.8796 10.4077 52.8009 10.4118C52.4745 10.4267 52.1594 10.537 51.8943 10.7291C51.6291 10.9212 51.4254 11.1868 51.308 11.4935C51.1905 11.8002 51.1645 12.1346 51.2331 12.4559C51.3017 12.7772 51.4619 13.0715 51.6941 13.3027L57.1111 18.0518L66.0065 25.8487C66.0138 25.9956 66.0356 26.1413 66.0715 26.2839C66.1779 26.6968 66.4067 27.0674 66.7274 27.3465C67.0481 27.6257 67.4456 27.8002 67.8672 27.847C68.2518 27.8921 68.6412 27.8274 68.9908 27.6602C69.268 27.5299 69.5138 27.3406 69.7113 27.1056C69.7317 27.0813 69.7503 27.0589 69.7689 27.0327C70.0286 26.6924 70.1789 26.2806 70.1998 25.8522C70.2207 25.4237 70.1112 24.9991 69.8859 24.6348Z" fill="#FFB8B8"/>
<path d="M45.6846 36.8952L45.5528 31.5055L45.4413 27.0328L45.3652 23.9028L45.2147 17.8016C45.185 17.475 45.0613 17.1641 44.8588 16.9069C44.6563 16.6498 44.3837 16.4575 44.0743 16.3535C43.765 16.2495 43.4322 16.2384 43.1166 16.3215C42.801 16.4045 42.5164 16.5781 42.2973 16.8212C42.2457 16.8767 42.1991 16.9367 42.158 17.0005C41.9294 17.3298 41.8265 17.7309 41.8683 18.1303L42.1989 27.0328L42.3642 31.5055L42.5758 37.2108C42.5148 37.2946 42.4596 37.3826 42.4106 37.4741C42.2786 37.7259 42.1988 38.0021 42.1761 38.2859C42.1534 38.5697 42.1884 38.8552 42.2788 39.125C42.3731 39.4079 42.526 39.6676 42.7274 39.8868C42.9287 40.106 43.174 40.2798 43.447 40.3968C43.72 40.5138 44.0145 40.5712 44.3112 40.5654C44.6079 40.5597 44.9 40.4907 45.1683 40.3631C45.4799 40.215 45.7504 39.9919 45.956 39.7137C46.1615 39.4354 46.2957 39.1105 46.3468 38.7677C46.3978 38.4249 46.3641 38.0747 46.2486 37.7482C46.1331 37.4216 45.9394 37.1286 45.6846 36.8952Z" fill="#FFB8B8"/>
<path d="M58.4241 21.6282L57.1111 18.0519L54.9867 12.2588C54.8334 11.8373 54.5877 11.456 54.2678 11.143C53.9479 10.8301 53.562 10.5936 53.1388 10.4511C53.1055 10.4399 53.0702 10.4287 53.0367 10.4193C52.6268 10.2942 52.1948 10.2598 51.7704 10.3185C51.346 10.3771 50.9392 10.5275 50.578 10.7592L43.4227 15.3234C42.7674 15.7405 42.299 16.3974 42.1164 17.1553C41.9338 17.9132 42.0512 18.7129 42.444 19.3853C43.3389 20.9413 44.3139 22.4492 45.3652 23.9028C46.1991 25.0439 47.7515 25.1653 48.0209 27.0328H53.2967L58.6377 22.2109L58.4241 21.6282Z" fill="#8F0C3C"/>
<path d="M67.169 27.6416C67.0112 27.4343 66.8533 27.2307 66.6936 27.0328C66.4875 26.7751 66.2801 26.5254 66.0715 26.2839C63.7074 23.5405 61.193 21.8131 58.4241 21.6282H58.4204L58.3795 21.6245L52.8622 27.0328L50.9865 28.8704L51.0274 28.9713L52.0395 31.5055H69.7726C68.9736 30.172 68.1045 28.8822 67.169 27.6416Z" fill="#071A3B"/>
<path d="M153.556 112.347C152.543 112.347 151.644 112.133 150.86 111.704C150.075 111.263 149.454 110.564 148.995 109.609C148.549 108.641 148.326 107.361 148.326 105.768C148.326 104.359 148.459 103.207 148.724 102.313C149.002 101.418 149.388 100.732 149.882 100.254C150.377 99.7641 150.956 99.4272 151.62 99.2434C152.283 99.0474 153.001 98.9493 153.773 98.9493C154.087 98.9493 154.473 98.9738 154.932 99.0229C155.39 99.0596 155.849 99.1147 156.307 99.1883C156.778 99.2495 157.164 99.323 157.466 99.4088L157.158 101.761C157.013 101.737 156.79 101.712 156.488 101.688C156.187 101.663 155.861 101.633 155.511 101.596C155.161 101.559 154.835 101.535 154.534 101.522C154.244 101.498 154.027 101.486 153.882 101.486C153.387 101.486 152.995 101.516 152.706 101.577C152.428 101.626 152.223 101.706 152.09 101.816C151.933 101.939 151.795 102.153 151.674 102.46C151.553 102.754 151.457 103.17 151.384 103.709C151.312 104.248 151.276 104.953 151.276 105.823C151.276 106.901 151.372 107.753 151.565 108.377C151.759 108.99 151.958 109.376 152.163 109.535C152.295 109.633 152.464 109.713 152.669 109.774C152.875 109.835 153.134 109.866 153.448 109.866C153.834 109.866 154.238 109.817 154.66 109.719C155.095 109.621 155.499 109.511 155.873 109.388C156.247 109.254 156.555 109.137 156.796 109.039C157.037 108.941 157.158 108.892 157.158 108.892L157.972 111.079C157.972 111.079 157.864 111.146 157.647 111.281C157.429 111.404 157.122 111.551 156.724 111.722C156.325 111.882 155.855 112.023 155.312 112.145C154.781 112.28 154.196 112.347 153.556 112.347Z" fill="#0C4879"/>
<path d="M165.124 112.347C164.388 112.347 163.688 112.249 163.025 112.053C162.373 111.857 161.794 111.514 161.287 111.024C160.793 110.534 160.401 109.854 160.111 108.984C159.833 108.102 159.695 106.981 159.695 105.621C159.695 104.261 159.833 103.146 160.111 102.276C160.401 101.406 160.793 100.732 161.287 100.254C161.794 99.7641 162.373 99.4272 163.025 99.2434C163.688 99.0474 164.388 98.9493 165.124 98.9493C165.872 98.9493 166.572 99.0474 167.224 99.2434C167.875 99.4272 168.448 99.7641 168.943 100.254C169.45 100.732 169.842 101.406 170.119 102.276C170.409 103.146 170.554 104.261 170.554 105.621C170.554 106.981 170.409 108.102 170.119 108.984C169.842 109.854 169.45 110.534 168.943 111.024C168.448 111.514 167.875 111.857 167.224 112.053C166.572 112.249 165.872 112.347 165.124 112.347ZM165.124 109.811C165.703 109.811 166.174 109.713 166.536 109.517C166.898 109.309 167.163 108.91 167.332 108.322C167.513 107.722 167.604 106.834 167.604 105.657C167.604 104.763 167.556 104.04 167.459 103.489C167.362 102.937 167.212 102.521 167.007 102.239C166.813 101.945 166.56 101.749 166.246 101.651C165.933 101.541 165.559 101.486 165.124 101.486C164.69 101.486 164.316 101.541 164.002 101.651C163.688 101.749 163.429 101.945 163.224 102.239C163.031 102.521 162.886 102.937 162.79 103.489C162.693 104.04 162.645 104.763 162.645 105.657C162.645 106.552 162.693 107.275 162.79 107.826C162.886 108.365 163.037 108.782 163.242 109.076C163.447 109.358 163.701 109.554 164.002 109.664C164.316 109.762 164.69 109.811 165.124 109.811Z" fill="#0C4879"/>
<path d="M177.471 112.347C176.892 112.347 176.295 112.329 175.679 112.292C175.076 112.255 174.539 112.212 174.069 112.163C173.598 112.127 173.29 112.102 173.145 112.09V99.1883C173.387 99.1638 173.761 99.1331 174.268 99.0964C174.786 99.0596 175.347 99.029 175.951 99.0045C176.566 98.9677 177.133 98.9493 177.652 98.9493C178.75 98.9493 179.643 99.1209 180.331 99.4639C181.03 99.807 181.567 100.279 181.941 100.879C182.315 101.479 182.569 102.178 182.702 102.974C182.846 103.758 182.919 104.598 182.919 105.492C182.919 107.195 182.689 108.549 182.231 109.554C181.772 110.558 181.133 111.275 180.313 111.704C179.504 112.133 178.557 112.347 177.471 112.347ZM177.616 109.866C178.038 109.866 178.37 109.835 178.611 109.774C178.853 109.701 179.028 109.615 179.136 109.517C179.281 109.394 179.414 109.192 179.534 108.91C179.667 108.616 179.77 108.194 179.842 107.642C179.926 107.079 179.969 106.337 179.969 105.419C179.969 104.487 179.908 103.691 179.788 103.029C179.667 102.368 179.468 101.939 179.19 101.743C179.106 101.682 178.955 101.614 178.738 101.541C178.533 101.467 178.183 101.43 177.688 101.43C177.242 101.43 176.886 101.443 176.62 101.467C176.367 101.492 176.15 101.516 175.969 101.541V109.774C176.162 109.799 176.379 109.823 176.62 109.848C176.874 109.86 177.206 109.866 177.616 109.866Z" fill="#0C4879"/>
<path d="M185.504 112.108V99.1883H193.142V101.651L188.346 101.596L188.255 104.353H192.689V106.76H188.255L188.346 109.682L193.142 109.646V112.108H185.504Z" fill="#0C4879"/>
<path d="M209.891 112.347C209.625 112.347 209.36 112.329 209.094 112.292C208.829 112.255 208.606 112.219 208.425 112.182C208.244 112.157 208.153 112.145 208.153 112.145L208.425 109.701C208.606 109.737 208.853 109.78 209.167 109.829C209.493 109.866 209.752 109.884 209.945 109.884C210.138 109.884 210.289 109.842 210.397 109.756C210.518 109.658 210.609 109.45 210.669 109.131C210.729 108.8 210.759 108.292 210.759 107.606V99.1883H213.601V107.569C213.601 108.757 213.438 109.701 213.112 110.399C212.787 111.097 212.346 111.6 211.791 111.906C211.236 112.2 210.603 112.347 209.891 112.347Z" fill="#0C4879"/>
<path d="M216.791 112.108L216.864 106.117L216.791 99.2066C216.864 99.2066 217.075 99.1944 217.425 99.1699C217.775 99.1331 218.197 99.1025 218.692 99.078C219.186 99.0412 219.693 99.0106 220.212 98.9861C220.731 98.9616 221.195 98.9493 221.606 98.9493C222.583 98.9493 223.428 99.0902 224.139 99.372C224.863 99.6538 225.418 100.107 225.804 100.732C226.191 101.357 226.384 102.196 226.384 103.25C226.384 104.267 226.166 105.094 225.732 105.731C225.298 106.368 224.658 106.828 223.814 107.109V107.22L226.583 112.108H223.434L221.207 107.514L219.633 107.477V112.108H216.791ZM221.66 105.216C222.396 105.216 222.873 105.057 223.09 104.739C223.319 104.42 223.434 103.93 223.434 103.268C223.434 102.668 223.391 102.239 223.307 101.982C223.222 101.724 223.114 101.553 222.981 101.467C222.764 101.32 222.33 101.247 221.678 101.247C221.195 101.247 220.803 101.259 220.502 101.283C220.2 101.296 219.91 101.32 219.633 101.357V105.088C219.983 105.124 220.333 105.155 220.683 105.18C221.032 105.204 221.358 105.216 221.66 105.216Z" fill="#0C4879"/>
<path d="M105.774 112.347C105.303 112.347 104.796 112.329 104.254 112.292C103.711 112.255 103.198 112.212 102.715 112.163C102.245 112.127 101.852 112.09 101.539 112.053C101.237 112.016 101.086 111.998 101.086 111.998L101.141 106.062L101.05 99.2066C101.05 99.2066 101.201 99.1944 101.503 99.1699C101.804 99.1454 102.19 99.1147 102.661 99.078C103.131 99.0412 103.632 99.0106 104.163 98.9861C104.694 98.9616 105.189 98.9493 105.647 98.9493C106.443 98.9493 107.167 99.0596 107.819 99.2802C108.471 99.5007 108.989 99.8805 109.375 100.42C109.762 100.946 109.955 101.675 109.955 102.607C109.955 103.342 109.792 103.924 109.466 104.353C109.14 104.769 108.808 105.069 108.471 105.253V105.363C108.965 105.572 109.387 105.89 109.737 106.319C110.099 106.736 110.28 107.342 110.28 108.139C110.28 108.984 110.154 109.682 109.9 110.234C109.647 110.773 109.303 111.195 108.869 111.502C108.434 111.808 107.952 112.023 107.421 112.145C106.89 112.28 106.341 112.347 105.774 112.347ZM105.72 104.279C106.25 104.279 106.606 104.163 106.787 103.93C106.968 103.685 107.059 103.293 107.059 102.754C107.059 102.166 106.944 101.761 106.715 101.541C106.498 101.32 106.124 101.21 105.593 101.21C105.207 101.21 104.887 101.216 104.634 101.228C104.38 101.241 104.133 101.259 103.892 101.283V104.279H105.72ZM105.792 110.032C106.431 110.032 106.848 109.884 107.041 109.59C107.234 109.284 107.33 108.812 107.33 108.175C107.33 107.526 107.173 107.091 106.86 106.87C106.546 106.638 106.118 106.521 105.575 106.521H103.91L103.928 109.921C104.109 109.946 104.368 109.97 104.706 109.995C105.056 110.019 105.418 110.032 105.792 110.032Z" fill="#E11955"/>
<path d="M113.091 112.108L113.163 106.154L113.091 99.1883H115.95L115.896 104.941L115.95 112.108H113.091Z" fill="#E11955"/>
<path d="M123.972 112.347C123.236 112.347 122.536 112.249 121.872 112.053C121.221 111.857 120.642 111.514 120.135 111.024C119.64 110.534 119.248 109.854 118.958 108.984C118.681 108.102 118.542 106.981 118.542 105.621C118.542 104.261 118.681 103.146 118.958 102.276C119.248 101.406 119.64 100.732 120.135 100.254C120.642 99.7641 121.221 99.4272 121.872 99.2434C122.536 99.0474 123.236 98.9493 123.972 98.9493C124.72 98.9493 125.42 99.0474 126.071 99.2434C126.723 99.4272 127.296 99.7641 127.791 100.254C128.297 100.732 128.69 101.406 128.967 102.276C129.257 103.146 129.401 104.261 129.401 105.621C129.401 106.981 129.257 108.102 128.967 108.984C128.69 109.854 128.297 110.534 127.791 111.024C127.296 111.514 126.723 111.857 126.071 112.053C125.42 112.249 124.72 112.347 123.972 112.347ZM123.972 109.811C124.551 109.811 125.022 109.713 125.383 109.517C125.745 109.309 126.011 108.91 126.18 108.322C126.361 107.722 126.451 106.834 126.451 105.657C126.451 104.763 126.403 104.04 126.307 103.489C126.21 102.937 126.059 102.521 125.854 102.239C125.661 101.945 125.408 101.749 125.094 101.651C124.78 101.541 124.406 101.486 123.972 101.486C123.537 101.486 123.163 101.541 122.85 101.651C122.536 101.749 122.277 101.945 122.071 102.239C121.878 102.521 121.734 102.937 121.637 103.489C121.541 104.04 121.492 104.763 121.492 105.657C121.492 106.552 121.541 107.275 121.637 107.826C121.734 108.365 121.884 108.782 122.09 109.076C122.295 109.358 122.548 109.554 122.85 109.664C123.163 109.762 123.537 109.811 123.972 109.811Z" fill="#E11955"/>
<path d="M26.4072 201.438L28.6655 202.033L31.8459 192.818L28.513 191.939L26.4072 201.438Z" fill="#A0616A"/>
<path d="M25.338 203.649L26.0315 200.521L30.4497 201.686C31.1933 201.883 31.8348 202.393 32.2336 203.106C32.6323 203.818 32.7558 204.673 32.5768 205.485L32.5615 205.553L25.338 203.649Z" fill="#8F0C3C"/>
<path d="M36.4042 203.115H38.7275L39.8326 193.343H36.4039L36.4042 203.115Z" fill="#A0616A"/>
<path d="M35.8413 202.321L40.3869 202.32H40.387C41.1524 202.32 41.8865 202.652 42.4277 203.242C42.9689 203.832 43.273 204.633 43.273 205.467V205.538L35.8414 205.539L35.8413 202.321Z" fill="#8F0C3C"/>
<path d="M35.859 199.734L36.241 184.531L35.7264 178.366L34.7225 183.11L30.3355 198.711L26.5535 197.626L30.9336 180.804L29.9822 170.015L32.7154 168.099L32.7523 168.106L42.0903 169.983L39.8345 199.3L35.859 199.734Z" fill="#8F0C3C"/>
<path d="M39.5547 172.1C38.8027 172.1 37.9233 171.836 36.9443 171.082C33.8116 168.671 30.0764 171.265 30.039 171.291L29.8873 171.399L29.8926 171.201C29.8964 171.061 30.2716 157.098 30.2716 152.606C30.2716 147.964 33.0487 144.575 33.8999 143.646C34.7353 142.735 35.4383 142.755 36.3281 142.781C36.4814 142.785 36.6413 142.79 36.8094 142.79C37.9723 142.79 39.1029 144.008 39.1504 144.06L39.1732 144.085L39.1774 144.119L42.4042 170.614L42.3795 170.648C42.3645 170.669 41.3049 172.1 39.5547 172.1Z" fill="#071A3B"/>
<path d="M41.3873 138.584C42.6203 136.125 41.7913 133.041 39.5358 131.696C37.2803 130.351 34.4523 131.255 33.2193 133.715C31.9863 136.175 32.8153 139.259 35.0708 140.603C37.3263 141.948 40.1543 141.044 41.3873 138.584Z" fill="#A0616A"/>
<path d="M44.4283 176.342C44.2081 176.156 44.028 175.92 43.9007 175.649C43.7734 175.379 43.7019 175.082 43.6914 174.778C43.6808 174.475 43.7315 174.172 43.8397 173.892C43.9479 173.612 44.1111 173.362 44.3178 173.158L41.6746 166.359L45.1355 167.054L47.1149 173.404C47.4057 173.805 47.5514 174.308 47.5245 174.819C47.4975 175.33 47.2997 175.812 46.9685 176.174C46.6374 176.536 46.1959 176.753 45.7277 176.784C45.2595 176.815 44.7972 176.658 44.4283 176.342Z" fill="#A0616A"/>
<path d="M43.6796 172.472L38.9036 161.847L36.8094 153.85L36.8111 146.903C36.8158 146.876 37.3081 144.174 39.1328 144.361C40.7875 144.535 41.6786 145.418 42.1126 147.311C42.4813 148.919 41.9771 153.69 41.9283 154.141C42.2484 154.968 47.0518 167.449 46.2566 168.952C46.2268 169.01 46.1835 169.059 46.1309 169.094L46.982 171.054L43.6796 172.472Z" fill="#071A3B"/>
<path d="M36.7082 138.062C37.2661 138.141 37.687 137.519 37.8822 136.943C38.0774 136.368 38.2261 135.698 38.7112 135.387C39.374 134.962 40.2219 135.473 40.9798 135.333C41.8357 135.175 42.3921 134.185 42.4358 133.24C42.4794 132.295 42.1343 131.385 41.7958 130.513L41.6776 131.597C41.6934 131.23 41.6226 130.864 41.4719 130.535C41.3211 130.207 41.0956 129.926 40.8167 129.719L40.9691 131.309C40.9367 131.089 40.8648 130.879 40.7578 130.69C40.6507 130.501 40.5104 130.337 40.345 130.207C40.1797 130.078 39.9924 129.985 39.7941 129.934C39.5957 129.884 39.3902 129.876 39.1892 129.913L39.2132 130.86C38.2246 130.732 37.2274 130.603 36.236 130.701C35.2445 130.798 34.2461 131.141 33.4947 131.853C32.3706 132.918 31.9601 134.672 32.0979 136.289C32.2358 137.905 32.8478 139.424 33.4857 140.892C33.6462 141.261 33.8682 141.678 34.2404 141.725C34.5748 141.767 34.8808 141.462 34.9847 141.113C35.0648 140.755 35.0617 140.38 34.9757 140.024C34.8817 139.479 34.7631 138.922 34.8515 138.375C34.94 137.829 35.3002 137.29 35.8051 137.223C36.3099 137.156 36.8265 137.785 36.5837 138.272L36.7082 138.062Z" fill="#2F2E41"/>
<path d="M250.205 176.111C250.049 175.918 249.935 175.69 249.869 175.444C249.803 175.197 249.788 174.938 249.824 174.684C249.86 174.43 249.946 174.188 250.077 173.975C250.209 173.761 250.381 173.582 250.583 173.449L249.391 167.341L252.162 168.525L252.868 174.143C253.05 174.528 253.097 174.971 252.999 175.39C252.902 175.81 252.666 176.175 252.338 176.418C252.01 176.66 251.611 176.763 251.218 176.707C250.825 176.65 250.464 176.438 250.205 176.111Z" fill="#FFB8B8"/>
<path d="M249.89 171.346L249.875 171.286C248.378 165.245 246.829 159.001 244.939 152.202L244.927 152.157L244.969 152.131C246.022 151.46 247.606 151.505 248.652 152.235C249.125 152.567 249.494 153.051 249.707 153.619C249.92 154.188 249.968 154.814 249.844 155.413L251.223 163.251C251.783 165.813 252.363 168.465 252.918 171.08L252.933 171.154L252.848 171.16C251.838 171.23 250.795 171.303 249.96 171.343L249.89 171.346Z" fill="#071A3B"/>
<path d="M237.162 203.857H235.198L234.263 195.595H237.162V203.857Z" fill="#FFB8B8"/>
<path d="M237.663 205.934H231.329V205.847C231.33 205.134 231.59 204.45 232.052 203.946C232.515 203.442 233.141 203.159 233.795 203.158H237.663V205.934Z" fill="#0C4879"/>
<path d="M255.673 202.09L253.801 202.741L250.61 195.178L253.373 194.218L255.673 202.09Z" fill="#FFB8B8"/>
<path d="M250.693 206L250.669 205.917C250.471 205.237 250.529 204.5 250.829 203.867C251.129 203.234 251.647 202.756 252.27 202.539L255.956 201.258L256.728 203.903L250.693 206Z" fill="#0C4879"/>
<path d="M245.73 146.666C247.904 146.666 249.666 144.745 249.666 142.375C249.666 140.005 247.904 138.083 245.73 138.083C243.557 138.083 241.795 140.005 241.795 142.375C241.795 144.745 243.557 146.666 245.73 146.666Z" fill="#FFB8B8"/>
<path d="M247.497 141.579C247.52 139.848 246.855 138.134 245.828 137.272C245.344 136.854 244.742 136.632 244.125 136.644C243.507 136.656 242.912 136.901 242.442 137.337C241.431 138.239 240.798 139.978 240.851 141.707C243.117 141.714 245.383 141.721 247.497 141.579Z" fill="#2F2E41"/>
<path d="M238.284 201.198L238.205 201.189C236.496 201.006 234.729 200.818 233.059 200.796L232.968 200.795L232.98 200.697C233.376 197.571 233.544 194.322 233.706 191.18C233.866 188.078 234.032 184.87 234.418 181.823C234.581 181.007 234.74 180.201 234.898 179.398C236.21 172.75 237.449 166.471 240.006 160.256L240.03 160.198L240.089 160.205C242.488 160.522 244.794 161.476 246.581 162.893L246.615 162.921L246.613 162.967C246.579 163.933 246.543 164.931 246.596 165.84C247.407 167.069 247.945 168.487 248.166 169.981C248.387 171.476 248.286 173.006 247.871 174.451C248.574 177.015 249.302 179.666 250.044 182.281C251.846 187.669 253.711 193.245 255.623 198.898L255.654 198.991L255.566 199.013C254.191 199.365 252.772 199.728 251.372 199.869L251.319 199.875L251.294 199.824C247.724 192.579 244.821 184.967 242.627 177.099C242.15 178.687 241.461 180.121 240.795 181.51C240.157 182.774 239.596 184.081 239.115 185.425C238.82 188.067 238.742 190.93 238.666 193.698C238.595 196.315 238.527 198.787 238.293 201.112L238.284 201.198Z" fill="#0C4879"/>
<path d="M244.387 137.352C246.093 136.951 247.98 137.332 249.319 138.587C250.659 139.842 251.339 142.014 250.789 143.876C250.238 145.738 248.37 147.048 246.68 146.567C247.164 145.08 246.62 143.254 245.437 142.397C244.034 141.381 243.647 138.955 244.387 137.352Z" fill="#2F2E41"/>
<path d="M246.458 163.08L246.395 163.049C244.219 161.966 242.086 161.135 240.086 160.377L240.025 160.363V160.169L240.065 160.184C240.073 160.164 240.082 160.141 240.092 160.118C240.119 160.053 240.138 160.008 240.154 159.978H240.153C240.32 159.607 240.452 159.249 240.58 158.903C240.713 158.546 240.849 158.177 241.026 157.787C240.598 157.32 240.305 156.726 240.184 156.079C240.062 155.432 240.116 154.761 240.34 154.148C240.782 153.006 241.908 152.117 243.091 151.97C243.525 150.668 244.491 147.933 244.491 147.933C244.491 147.933 246.522 147.872 247.339 147.759L247.353 147.758L247.366 147.761C249.15 148.187 250.639 150.027 250.987 152.236C251.281 154.101 250.835 156.233 249.73 158.241C249.163 159.223 248.536 160.162 247.854 161.052C247.356 161.731 246.886 162.372 246.496 163.017L246.458 163.08Z" fill="#071A3B"/>
<path d="M250.397 139.895C249.203 139.7 248.265 138.369 248.401 137.061C248.537 135.753 249.723 134.684 250.927 134.785C252.131 134.887 253.153 136.142 253.102 137.457C253.052 138.773 251.921 140.143 250.397 139.895Z" fill="#2F2E41"/>
<path d="M250.21 139.046C249.016 138.852 248.079 137.521 248.214 136.213C248.274 135.768 248.435 135.346 248.684 134.988C248.933 134.629 249.261 134.345 249.638 134.162C248.675 134.392 247.846 135.307 247.734 136.387C247.598 137.696 248.536 139.027 249.73 139.221C250.175 139.297 250.63 139.228 251.039 139.022C250.766 139.084 250.486 139.092 250.21 139.046Z" fill="#2F2E41"/>
<path d="M227.048 162.107C227.163 161.883 227.322 161.689 227.513 161.539C227.704 161.39 227.924 161.287 228.155 161.24C228.387 161.192 228.625 161.201 228.853 161.264C229.081 161.328 229.294 161.446 229.476 161.609L234.359 158.349L234.259 161.592L229.637 164.19C229.365 164.505 228.997 164.701 228.602 164.74C228.207 164.78 227.813 164.659 227.494 164.403C227.175 164.146 226.953 163.771 226.871 163.347C226.789 162.924 226.852 162.483 227.048 162.107Z" fill="#FFB8B8"/>
<path d="M231.063 160.196L231.11 160.161C235.834 156.608 240.717 152.936 245.966 148.727L246 148.7L246.037 148.734C246.968 149.594 247.457 151.236 247.174 152.555C247.045 153.153 246.749 153.693 246.329 154.102C245.909 154.51 245.383 154.768 244.824 154.841L238.506 158.869C236.478 160.299 234.378 161.779 232.302 163.221L232.243 163.261L232.209 163.175C231.812 162.161 231.402 161.113 231.089 160.267L231.063 160.196Z" fill="#071A3B"/>
<path d="M196.671 112.108V109.646L199.802 109.664L199.91 102.276H199.802L197.702 104.426L195.91 102.533L199.946 99.0412L202.643 99.225V109.682L205.394 109.646V112.108H196.671Z" fill="#0C4879"/>
<path d="M137.549 111.496V109.033L140.68 109.051L140.788 101.663H140.68L138.58 103.813L136.788 101.92L140.824 98.4286L143.521 98.6124V109.07L146.272 109.033V111.496H137.549Z" fill="#0C4879"/>
</g>
<defs>
<linearGradient id="paint0_linear_1:2" x1="27082.6" y1="16010.2" x2="27082.6" y2="11275.2" gradientUnits="userSpaceOnUse">
<stop stop-color="#071A3B"/>
<stop offset="0.54" stop-color="#808080" stop-opacity="0.12"/>
<stop offset="1" stop-color="#808080" stop-opacity="0.1"/>
</linearGradient>
<clipPath id="clip0_1:2">
<rect width="261" height="206" fill="white"/>
</clipPath>
</defs>
</svg>
