<svg width="65" height="65" viewBox="0 0 65 65" fill="none" xmlns="http://www.w3.org/2000/svg">
<path d="M48.2258 19.2776C48.2259 19.0406 48.1793 18.8059 48.0887 18.5869C47.9981 18.3679 47.8652 18.1689 47.6976 18.0013C47.53 17.8338 47.331 17.7008 47.112 17.6102C46.893 17.5196 46.6583 17.473 46.4213 17.4731H18.5786C18.1001 17.4731 17.6411 17.6633 17.3027 18.0016C16.9643 18.34 16.7742 18.799 16.7742 19.2776V47.114C16.7742 47.5926 16.9643 48.0515 17.3027 48.3899C17.6411 48.7283 18.1001 48.9184 18.5786 48.9184L46.4213 48.9248C46.8999 48.9248 47.3589 48.7347 47.6973 48.3963C48.0357 48.0579 48.2258 47.5989 48.2258 47.1203V19.2776ZM46.3241 47.0231H32.5V44.1306C32.4994 44.0092 32.5274 43.8893 32.5819 43.7808C32.6364 43.6723 32.7157 43.5782 32.8134 43.5061C32.9111 43.434 33.0245 43.3861 33.1442 43.3661C33.264 43.3461 33.3868 43.3546 33.5026 43.3911C33.6872 43.4498 33.8679 43.5204 34.0435 43.6024C34.43 43.8045 34.8574 43.916 35.2933 43.9286C35.7293 43.9413 36.1624 43.8546 36.5599 43.6752C36.9575 43.4958 37.309 43.2284 37.588 42.8931C37.8669 42.5579 38.066 42.1636 38.1702 41.7401C38.2743 41.3166 38.2808 40.8749 38.1891 40.4485C38.0975 40.0222 37.9101 39.6222 37.6411 39.2789C37.3721 38.9356 37.0286 38.658 36.6365 38.467C36.2444 38.276 35.814 38.1766 35.3778 38.1764C34.8961 38.1764 34.0435 38.505 34.0435 38.505C33.8682 38.5868 33.6879 38.6574 33.5036 38.7163C33.3878 38.7529 33.2648 38.7616 33.1449 38.7417C33.025 38.7218 32.9115 38.6739 32.8137 38.6018C32.7159 38.5297 32.6364 38.4355 32.5819 38.3269C32.5274 38.2183 32.4993 38.0983 32.5 37.9768V33.1984H27.713C27.5916 33.198 27.4717 33.2262 27.3632 33.2808C27.2547 33.3354 27.1606 33.4148 27.0886 33.5126C27.0165 33.6104 26.9686 33.7238 26.9486 33.8435C26.9286 33.9633 26.9371 34.0862 26.9735 34.2021C27.032 34.3864 27.1026 34.5668 27.1848 34.7419C27.1848 34.7419 27.5123 35.5945 27.5123 36.0762C27.5135 36.5132 27.4152 36.9448 27.2247 37.3382C27.0343 37.7316 26.7568 38.0764 26.4132 38.3466C26.0696 38.6167 25.669 38.805 25.2418 38.8973C24.8145 38.9895 24.3719 38.9832 23.9475 38.8789C23.523 38.7745 23.128 38.5749 22.7922 38.2951C22.4564 38.0154 22.1888 37.6628 22.0096 37.2641C21.8304 36.8655 21.7443 36.4313 21.758 35.9945C21.7716 35.5576 21.8846 35.1296 22.0883 34.743C22.1706 34.5675 22.2412 34.3868 22.2996 34.2021C22.3358 34.0862 22.3442 33.9635 22.3241 33.8439C22.304 33.7242 22.256 33.611 22.184 33.5133C22.1119 33.4157 22.0179 33.3364 21.9095 33.2818C21.8011 33.2273 21.6814 33.1991 21.5601 33.1995H18.6758V19.3748H32.5V22.2599C32.5004 22.3813 32.4721 22.501 32.4176 22.6094C32.3631 22.7178 32.2838 22.8118 32.1861 22.8838C32.0885 22.9558 31.9752 23.0038 31.8556 23.0239C31.7359 23.044 31.6132 23.0356 31.4974 22.9994C31.3127 22.9408 31.132 22.8702 30.9564 22.7882C30.57 22.5861 30.1426 22.4745 29.7066 22.4619C29.2707 22.4492 28.8375 22.5359 28.44 22.7153C28.0425 22.8947 27.6909 23.1621 27.412 23.4974C27.133 23.8326 26.9339 24.2269 26.8298 24.6504C26.7256 25.0739 26.7191 25.5156 26.8108 25.942C26.9025 26.3683 27.0899 26.7683 27.3589 27.1116C27.6279 27.4549 27.9714 27.7325 28.3635 27.9235C28.7556 28.1145 29.186 28.2139 29.6221 28.2141C30.1039 28.2141 30.9564 27.8866 30.9564 27.8866C31.1316 27.8044 31.3119 27.7338 31.4963 27.6753C31.6122 27.6387 31.7351 27.6299 31.855 27.6498C31.9749 27.6697 32.0884 27.7177 32.1862 27.7898C32.2841 27.8619 32.3635 27.9561 32.418 28.0647C32.4726 28.1733 32.5006 28.2933 32.5 28.4148V33.2016H37.2922C37.4129 33.2009 37.5317 33.1718 37.6392 33.1168C37.7466 33.0618 37.8396 32.9823 37.9107 32.8848C37.9819 32.7873 38.0291 32.6744 38.0486 32.5553C38.0682 32.4362 38.0595 32.3142 38.0233 32.199C37.9646 32.0143 37.894 31.8337 37.812 31.6581C37.812 31.6581 37.4845 30.8056 37.4845 30.3238C37.484 29.8872 37.5829 29.4561 37.7737 29.0634C37.9645 28.6706 38.2422 28.3264 38.5857 28.0569C38.9292 27.7873 39.3296 27.5994 39.7565 27.5075C40.1833 27.4156 40.6255 27.422 41.0496 27.5263C41.4736 27.6305 41.8683 27.8299 42.2039 28.1093C42.5395 28.3888 42.807 28.7409 42.9864 29.139C43.1657 29.5371 43.252 29.9708 43.2389 30.4073C43.2258 30.8437 43.1135 31.2715 42.9106 31.6581C42.8286 31.8337 42.758 32.0143 42.6993 32.199C42.6633 32.3142 42.6548 32.4363 42.6745 32.5554C42.6942 32.6745 42.7416 32.7873 42.8127 32.8848C42.8839 32.9823 42.977 33.0617 43.0844 33.1167C43.1919 33.1717 43.3107 33.2008 43.4314 33.2016H46.322L46.3241 47.0231Z" fill="white"/>
<circle cx="32.5" cy="32.5" r="31.5" stroke="white" stroke-width="2"/>
</svg>
