<svg width="65" height="65" viewBox="0 0 65 65" fill="none" xmlns="http://www.w3.org/2000/svg">
<path d="M56.0923 29.2225L47.6144 16.4218C47.2107 15.8244 46.6455 15.4831 45.9996 15.3977C45.3536 15.3124 44.7077 15.4831 44.2233 15.9098L40.8321 18.8113C40.3476 19.238 40.0247 19.8353 39.9439 20.518C39.9439 20.7741 39.9439 20.9447 39.9439 21.2007C39.621 21.2007 39.298 21.2861 38.975 21.2861C38.7328 21.2861 38.5713 21.3714 38.3291 21.3714C37.0372 21.4568 35.6646 21.8835 34.2112 22.4808C33.8883 22.6515 33.5653 22.8222 33.2423 22.9928C31.789 22.2248 30.4164 21.7128 29.0437 21.4568C28.0748 21.2861 27.1867 21.2007 26.3792 21.3714C26.5407 20.4327 26.2178 19.4086 25.4911 18.8113L22.0999 15.9098C21.6155 15.4831 20.9695 15.3124 20.3236 15.3977C19.6777 15.4831 19.1125 15.8244 18.7087 16.4218L10.2308 29.2225C9.50415 30.3319 9.66563 31.9534 10.7153 32.8921L14.1064 35.7936C14.5102 36.135 14.9946 36.3056 15.5598 36.3056C15.6405 36.3056 15.802 36.3056 15.8828 36.3056C16.2865 36.2203 16.6095 36.0496 16.9324 35.7936C17.1746 36.5616 17.5784 37.3297 18.1436 38.0977C17.9821 38.9511 18.1436 39.8898 18.5473 40.5725C19.1125 41.5966 20.0814 42.194 21.2118 42.194C21.5347 42.194 21.7769 42.1086 22.0192 42.1086C22.0999 42.6207 22.2614 43.0474 22.5036 43.474C23.0688 44.4981 24.0377 45.0955 25.1681 45.0955C25.7333 45.0955 26.2985 44.9248 26.8637 44.5834C26.9444 44.9248 27.1059 45.2662 27.2674 45.6075C27.7519 46.3755 28.3978 46.9729 29.2052 47.1436C29.6089 47.2289 30.0126 47.2289 30.3356 47.1436C30.4164 47.5703 30.5778 48.0823 30.8201 48.509C31.3853 49.5331 32.3542 50.1304 33.4846 50.1304C34.1305 50.1304 34.6957 49.9598 35.1801 49.5331L37.4409 47.9116C38.2483 47.3143 38.7328 46.3755 38.8135 45.3515C39.3787 45.2662 39.8632 44.9248 40.2669 44.5834C40.6706 44.2421 40.9128 43.7301 41.0743 43.3034C41.3165 43.3887 41.5588 43.474 41.8817 43.474C42.4469 43.5594 43.0121 43.3887 43.4966 43.1327L44.1425 42.706L44.4655 42.45L44.7885 42.0233C44.7885 41.938 44.8692 41.938 44.8692 41.8526C45.9996 43.0474 47.8567 43.0474 49.0678 41.938C50.1174 40.9139 50.4404 39.2071 49.8752 37.8417C49.9559 37.3297 50.0367 36.8177 50.0367 36.3056C50.7634 36.647 51.6515 36.4763 52.2975 35.8789L55.6886 32.9774C56.1731 32.5507 56.4961 31.9534 56.5768 31.2707C56.6575 30.4173 56.4961 29.7346 56.0923 29.2225ZM43.8195 23.5902C43.7388 23.5049 43.5773 23.2489 43.4966 23.0782C43.3351 22.8222 43.2544 22.6515 43.1736 22.5662L42.2047 21.0301C42.124 20.8594 42.124 20.6034 42.2854 20.518L45.6766 17.6165C45.7574 17.5312 45.9188 17.5312 45.9996 17.7019L54.4775 30.5026C54.5582 30.588 54.5582 30.6733 54.5582 30.7586C54.5582 30.844 54.4775 30.9293 54.4775 31.0147L50.9249 34.0015C50.8441 34.0015 50.8441 34.0868 50.7634 34.0868C50.7634 34.0868 50.6826 34.0868 50.6019 34.0015L45.9188 26.9184L43.8195 23.5902ZM41.6395 33.7455C41.5588 33.5748 41.5588 33.4041 41.5588 33.2334C41.5588 32.8921 41.7202 32.6361 41.8817 32.3801C42.2854 31.9534 42.9314 32.0387 43.2543 32.5507L47.6144 38.4391C48.0181 38.9511 47.9374 39.7192 47.5337 40.1459C47.3722 40.3165 47.0492 40.4019 46.807 40.4019C46.5648 40.4019 46.3225 40.2312 46.1611 39.9752L41.6395 33.7455ZM24.1992 21.0301L22.5036 23.5902C22.5036 23.5902 22.4229 23.6756 22.4229 23.7609L15.7213 33.9162C15.6405 34.0015 15.6405 34.0015 15.5598 34.0015C15.4791 34.0015 15.4791 34.0015 15.3983 34.0015L12.0072 31.1C11.8457 31.0147 11.8457 30.7586 11.9264 30.588L20.4043 17.7872C20.4851 17.7019 20.4851 17.7019 20.5658 17.7019C20.5658 17.7019 20.6466 17.7019 20.6466 17.7872L24.0377 20.6887C24.28 20.6887 24.28 20.8594 24.1992 21.0301ZM18.8702 33.0628L24.7644 24.1876C26.7022 23.1635 28.963 23.5902 30.9008 24.4436C30.4164 24.785 30.0126 25.041 29.9319 25.1263C28.5593 26.1504 27.5096 27.3451 27.0252 28.5398C26.46 29.7346 26.3792 30.9293 26.8637 31.868C27.3482 32.7214 28.2363 33.2334 29.286 33.3188C30.2549 33.4041 31.3853 33.0628 32.5964 32.3801L36.5528 29.7346C36.8757 29.5639 37.4409 29.3932 37.6024 29.4786C37.6831 29.4786 37.7639 29.7346 37.7639 29.7346C37.8446 29.9906 37.9254 30.588 38.4906 31.1853C38.7328 31.4413 39.1365 31.868 39.7017 32.1241C39.7017 32.2094 39.621 32.2947 39.621 32.3801C38.7328 32.2094 37.7639 32.4654 37.0372 33.1481C36.6335 33.4895 36.3913 34.0015 36.2298 34.4282C35.1801 34.0015 34.0497 34.2575 33.1616 35.0256C32.7579 34.5135 32.1927 34.1722 31.5467 34.0015C30.7393 33.8308 29.9319 34.0015 29.2052 34.5135L28.3978 35.1109C28.3171 34.6842 28.1556 34.2575 27.9941 33.9162C27.5096 33.1481 26.8637 32.5507 26.0563 32.3801C25.2489 32.2094 24.3607 32.3801 23.634 32.8921L19.5969 35.8789C19.5162 35.8789 19.5162 35.9643 19.4354 35.9643C18.7895 34.8549 18.628 33.9162 18.8702 33.0628ZM44.9499 31.1C44.304 30.3319 43.4158 29.8199 42.5277 29.8199C42.124 29.8199 41.7202 29.9053 41.3165 30.0759C40.0247 29.9053 39.8632 29.2225 39.8632 29.2225V29.1372C39.621 28.0278 38.975 27.5158 38.4906 27.2598C37.1987 26.6624 35.6646 27.5158 35.5031 27.6011L31.6275 30.2466C30.8201 30.7586 30.0126 31.0147 29.4474 30.9293C29.1245 30.9293 28.8823 30.844 28.8015 30.6733C28.7208 30.5026 28.7208 30.0759 28.963 29.4786C29.3667 28.6252 30.1741 27.7718 31.2238 26.9184L31.3045 26.8331C31.7082 26.4917 33.1616 25.3823 35.0994 24.5289C36.9565 23.6756 39.5402 22.9928 41.6395 24.1022L47.5337 32.9774C47.6952 33.5748 47.8567 34.1722 47.8567 34.7695L44.9499 31.1ZM20.4043 39.3778C20.2429 39.1218 20.1621 38.7804 20.2428 38.4391C20.3236 38.0977 20.4851 37.8417 20.7273 37.671L24.7644 34.6842C24.9259 34.5989 25.0874 34.5135 25.2489 34.5135C25.5718 34.5135 25.8948 34.6842 26.0563 35.0256C26.3792 35.6229 26.2178 36.391 25.7333 36.7323L21.6962 39.7192C21.454 39.8898 21.2118 39.8898 20.9695 39.8898C20.7273 39.8045 20.5658 39.6338 20.4043 39.3778ZM24.3607 42.2793C24.0377 41.6819 24.1992 40.9139 24.6837 40.5725L30.4164 36.391C30.5778 36.3056 30.7393 36.2203 30.9008 36.2203C30.9816 36.2203 31.0623 36.2203 31.0623 36.2203C31.3045 36.3056 31.5467 36.4763 31.7082 36.7323C32.0312 37.3297 31.8697 38.0977 31.3853 38.4391L28.1556 40.7432C28.0748 40.8286 27.9941 40.9139 27.8326 40.9992L25.6526 42.6207C25.4103 42.7913 25.1681 42.7913 24.9259 42.7913C24.6837 42.706 24.4414 42.5353 24.3607 42.2793ZM28.8823 43.3887C28.963 43.1327 29.0437 42.962 29.2052 42.7913L31.789 40.9139C31.9505 40.8286 32.1119 40.8286 32.3542 40.9139C32.5964 40.9992 32.8386 41.1699 33.0001 41.4259C33.1616 41.6819 33.2423 42.0233 33.1616 42.3646C33.0808 42.6207 33.0001 42.7913 32.9194 42.962L30.4971 44.7541C30.2549 44.9248 30.0126 44.9248 29.7704 44.9248C29.5282 44.8395 29.286 44.6688 29.1245 44.4128C28.8823 44.0714 28.8015 43.7301 28.8823 43.3887ZM32.5964 47.2289C32.3542 46.7169 32.3542 46.1195 32.7579 45.6928L35.1801 43.9007C35.4224 43.7301 35.6646 43.7301 35.9068 43.7301C36.149 43.8154 36.3913 43.9861 36.5528 44.2421C36.8757 44.8395 36.7142 45.6075 36.2298 45.9489L33.969 47.6556C33.7268 47.8263 33.4846 47.8263 33.2423 47.8263C33.0001 47.741 32.7579 47.5703 32.5964 47.2289ZM36.7142 41.6819L34.292 38.5244C34.1305 38.2684 34.0497 38.0124 34.0497 37.7564C34.0497 37.415 34.2112 37.0737 34.4535 36.8177C34.6149 36.647 34.8572 36.5616 35.1801 36.5616C35.4224 36.5616 35.6646 36.7323 35.8261 36.9883L38.975 41.1699C39.1365 41.4259 39.2172 41.7673 39.2172 42.1086C39.2172 42.45 39.0558 42.706 38.8135 42.962C38.6521 43.1327 38.4906 43.218 38.2483 43.218C37.9254 42.3646 37.3602 41.938 36.7142 41.6819ZM38.4098 34.7695C38.5713 34.5989 38.8135 34.5135 39.0558 34.5135C39.3787 34.5135 39.621 34.6842 39.7824 34.9402L43.0929 39.5485C43.1736 39.7192 43.1736 39.8898 43.1736 40.0605C43.1736 40.4019 43.0121 40.6579 42.7699 40.9139C42.6084 41.0846 42.3662 41.1699 42.0432 41.1699C41.801 41.1699 41.5588 40.9992 41.3973 40.7432L38.2483 36.5616C38.0869 36.3056 38.0061 35.9643 38.0061 35.6229C38.0869 35.2816 38.2483 35.0256 38.4098 34.7695Z" fill="white"/>
<path d="M16.6905 29.9906C16.6097 29.6492 16.4482 29.1372 16.206 28.7959C15.883 28.4545 15.4793 28.1132 14.9949 28.1132C14.026 28.1132 12.9763 29.2226 12.9763 30.1613V30.2466C12.9763 30.7586 13.2993 31.1853 13.6223 31.5267C13.9452 31.868 14.4297 32.0387 14.9141 32.0387C15.3986 32.0387 15.883 31.868 16.206 31.5267C16.4482 31.2707 16.6905 30.9293 16.6905 30.5026V29.9906ZM14.5104 30.2466C14.5104 30.0759 14.5912 29.9906 14.6719 29.9053C14.7526 29.8199 14.9141 29.7346 14.9949 29.7346C15.2371 29.7346 15.4793 29.9906 15.4793 30.2466C15.4793 30.5026 15.2371 30.7586 14.9949 30.7586C14.6719 30.7586 14.5104 30.5026 14.5104 30.2466Z" fill="white"/>
<path d="M51.1671 32.5508C51.6516 32.5508 52.0553 32.3801 52.3783 32.0387C52.6205 31.7827 52.782 31.4414 52.8627 31.0147V30.5026C52.782 30.1613 52.6205 29.8199 52.3783 29.5639C52.0553 29.2226 51.6516 29.0519 51.1671 29.0519C50.1982 29.0519 49.3101 29.7346 49.3101 30.7586V30.844C49.3101 31.356 49.5523 31.7827 49.8753 32.1241C50.1982 32.3801 50.6827 32.5508 51.1671 32.5508ZM51.0864 31.1853C50.8442 31.1853 50.6019 30.9293 50.6019 30.6733C50.6019 30.5026 50.6827 30.4173 50.7634 30.332C50.8442 30.2466 51.0056 30.1613 51.0864 30.1613C51.3286 30.1613 51.5708 30.4173 51.5708 30.6733C51.5708 31.0147 51.4094 31.1853 51.0864 31.1853Z" fill="white"/>
<circle cx="32.5" cy="32.5" r="31.5" stroke="white" stroke-width="2"/>
</svg>
