<svg width="65" height="65" viewBox="0 0 65 65" fill="none" xmlns="http://www.w3.org/2000/svg">
<g clip-path="url(#clip0_215_416)">
<path d="M45.3522 29.711L45.0769 28.5017L51.4398 27.0567L51.7204 28.2714L45.3522 29.711Z" fill="white"/>
<path d="M48.1868 20.373L47.4044 19.3992L42.3017 23.4307L43.084 24.4045L48.1868 20.373Z" fill="white"/>
<path d="M41.5587 14.7749L40.4252 14.2344L37.5973 20.057L38.725 20.5975L41.5587 14.7749Z" fill="white"/>
<path d="M33.1231 12.5806H31.871V19.051H33.1231V12.5806Z" fill="white"/>
<path d="M27.3972 20.057L24.5697 14.2344L23.4362 14.7749L26.2695 20.5975L27.3972 20.057Z" fill="white"/>
<path d="M22.692 23.4345L17.5918 19.3992L16.8087 20.3725L21.9089 24.4078L22.692 23.4345Z" fill="white"/>
<path d="M19.9176 28.5017L13.5548 27.0567L13.2795 28.2714L19.6424 29.711L19.9176 28.5017Z" fill="white"/>
<path d="M28.5198 47.8747L36.9383 46.3651C36.9492 46.2637 36.9546 46.1564 36.9546 46.0495V45.2415L28.1256 46.8199C28.2016 47.1951 28.3365 47.5484 28.5198 47.8747Z" fill="white"/>
<path d="M28.0449 46.0177L36.955 44.4227V43.3045L28.0449 44.894V46.0177Z" fill="white"/>
<path d="M36.7716 47.2166L29.0432 48.5974C29.2967 48.8757 29.5882 49.1114 29.9173 49.304V51.0215H35.0873V49.3036C35.8758 48.8327 36.4801 48.0942 36.7716 47.2166Z" fill="white"/>
<path d="M42.5569 31.9856C42.5569 26.4786 38.0559 22.0152 32.4975 22.0152C26.9495 22.0152 22.4431 26.4786 22.4431 31.9856C22.4431 35.9081 24.726 39.2959 28.045 40.9281V44.0803L36.9546 42.4857V40.9281C40.274 39.2959 42.5569 35.9085 42.5569 31.9856Z" fill="white"/>
</g>
<circle cx="32.5" cy="32.5" r="31.5" stroke="white" stroke-width="2"/>
<defs>
<clipPath id="clip0_215_416">
<rect width="38.4409" height="38.4409" fill="white" transform="translate(13.2795 12.5806)"/>
</clipPath>
</defs>
</svg>
