<svg width="65" height="65" viewBox="0 0 65 65" fill="none" xmlns="http://www.w3.org/2000/svg">
<g clip-path="url(#clip0_215_430)">
<path d="M16.5592 23.3333C16.9463 23.3333 17.2043 23.0752 17.2043 22.6881V17.5268C17.2043 17.1397 16.9463 16.8817 16.5592 16.8817C16.1721 16.8817 15.914 17.1397 15.914 17.5268V22.6881C15.914 23.0752 16.1721 23.3333 16.5592 23.3333Z" fill="white"/>
<path d="M16.5592 16.2365C16.9463 16.2365 17.2043 15.9784 17.2043 15.5913V14.9462C17.2043 14.5591 16.9463 14.301 16.5592 14.301C16.1721 14.301 15.914 14.5591 15.914 14.9462V15.5913C15.914 15.9784 16.1721 16.2365 16.5592 16.2365Z" fill="white"/>
<path d="M19.1398 38.172C19.1398 37.7849 18.8817 37.5268 18.4947 37.5268H17.8495V36.8817C17.8495 36.4946 17.5914 36.2365 17.2043 36.2365C16.8172 36.2365 16.5592 36.4946 16.5592 36.8817V37.5268H15.914C15.5269 37.5268 15.2688 37.7849 15.2688 38.172C15.2688 38.5591 15.5269 38.8172 15.914 38.8172H16.5592V39.4623C16.5592 39.8494 16.8172 40.1075 17.2043 40.1075C17.5914 40.1075 17.8495 39.8494 17.8495 39.4623V38.8172H18.4947C18.8817 38.8172 19.1398 38.5591 19.1398 38.172Z" fill="white"/>
<path d="M51.4624 16.8816H50.8172V16.2365C50.8172 15.8494 50.5592 15.5913 50.1721 15.5913C49.785 15.5913 49.5269 15.8494 49.5269 16.2365V16.8816H48.8817C48.4946 16.8816 48.2366 17.1397 48.2366 17.5268C48.2366 17.9139 48.4946 18.172 48.8817 18.172H49.5269V18.8171C49.5269 19.2042 49.785 19.4623 50.1721 19.4623C50.5592 19.4623 50.8172 19.2042 50.8172 18.8171V18.172H51.4624C51.8495 18.172 52.1075 17.9139 52.1075 17.5268C52.1075 17.1397 51.8495 16.8816 51.4624 16.8816Z" fill="white"/>
<path d="M26.6882 44.172C25.2043 44.172 23.785 43.6559 22.6882 42.7526L18.8172 51.0107L24.9463 48.8171L27.2043 54.9462L31.1398 46.5591C30.4947 46.2365 29.9785 45.8494 29.4624 45.3333C28.6882 44.5591 27.7205 44.172 26.6882 44.172Z" fill="white"/>
<path d="M44.5592 43.2687C43.5914 43.8494 42.4946 44.172 41.2688 44.172C40.2366 44.172 39.2688 44.5591 38.5592 45.3333C37.8495 46.0429 37.0108 46.5591 36.043 46.8816L39.785 54.9462L42.043 48.8171L48.1721 51.0752L44.5592 43.2687Z" fill="white"/>
<path d="M33.9785 20.1075C28.3011 20.1075 23.6559 24.7526 23.6559 30.4301C23.6559 36.1075 28.3011 40.7526 33.9785 40.7526C39.6559 40.7526 44.3011 36.1075 44.3011 30.4301C44.3011 24.7526 39.6559 20.1075 33.9785 20.1075ZM38.4947 36.6881L33.9785 34.301L29.4624 36.6881L30.3011 31.6559L26.6237 28.1075L31.6559 27.3978L33.914 22.8172L36.1721 27.3978L41.2043 28.1075L37.5269 31.6559L38.4947 36.6881Z" fill="white"/>
<path d="M41.2689 42.8817C44.1076 42.8817 46.4301 40.5591 46.4301 37.7204C46.4301 36.3655 46.9463 35.0107 47.914 34.043C49.914 32.043 49.914 28.7526 47.914 26.7526C46.9463 25.7849 46.4301 24.4946 46.4301 23.0752C46.4301 20.2365 44.1076 17.9139 41.2689 17.9139C39.914 17.9139 38.5592 17.3978 37.5914 16.4301C35.5914 14.4301 32.3011 14.4301 30.3011 16.4301C29.3334 17.3978 28.043 17.9139 26.6237 17.9139C23.785 17.9139 21.4624 20.2365 21.4624 23.0752C21.4624 24.4301 20.9463 25.7849 19.9785 26.7526C17.9785 28.8171 17.9785 32.043 19.9785 34.1075C20.9463 35.0752 21.4624 36.3655 21.4624 37.7849C21.4624 40.6236 23.785 42.9462 26.6237 42.9462C27.9785 42.9462 29.3334 43.4623 30.3011 44.4301C32.3011 46.4301 35.5914 46.4301 37.5914 44.4301C38.6237 43.4623 39.914 42.8817 41.2689 42.8817ZM33.9785 42.043C27.5914 42.043 22.3656 36.8171 22.3656 30.4301C22.3656 24.043 27.5914 18.8172 33.9785 18.8172C40.3656 18.8172 45.5914 24.043 45.5914 30.4301C45.5914 36.8171 40.3656 42.043 33.9785 42.043Z" fill="white"/>
</g>
<circle cx="32.5" cy="32.5" r="31.5" stroke="white" stroke-width="2"/>
<defs>
<clipPath id="clip0_215_430">
<rect width="41.9355" height="41.9355" fill="white" transform="translate(13.9785 9.78491)"/>
</clipPath>
</defs>
</svg>
