<svg width="65" height="65" viewBox="0 0 65 65" fill="none" xmlns="http://www.w3.org/2000/svg">
<g clip-path="url(#clip0_215_392)">
<path d="M37.9506 35.4588L35.7269 37.8066L39.0633 41.3273L41.2869 38.9795L37.9506 35.4588Z" fill="#071A3B"/>
<path d="M39.0641 41.9163L35.172 37.8079L37.9515 34.8731L41.8437 38.9815L39.0641 41.9163ZM36.2838 37.8079L39.0641 40.7427L40.7319 38.9815L37.9515 36.0467L36.2838 37.8079Z" fill="white"/>
<path d="M49.3496 47.492L47.1259 49.8392C46.8185 50.1637 46.3216 50.1637 46.0141 49.8392L38.2306 41.6233C37.9232 41.2988 37.9232 40.7742 38.2306 40.4497L40.4543 38.1017C40.7617 37.778 41.2586 37.778 41.5661 38.1017L49.3496 46.3185C49.657 46.6421 49.657 47.1675 49.3496 47.492Z" fill="white"/>
<path d="M46.5701 50.4965C46.2681 50.4965 45.9654 50.3753 45.7358 50.133L37.9523 41.9171C37.4923 41.4315 37.4923 40.6422 37.9523 40.1567L40.1759 37.8087C40.6351 37.324 41.3829 37.3248 41.8437 37.8087L49.6272 46.0254C50.0871 46.511 50.0871 47.3011 49.6272 47.7867L47.4035 50.1338C47.1739 50.3753 46.872 50.4965 46.5701 50.4965ZM41.0102 38.2735C40.9096 38.2735 40.8089 38.3142 40.7319 38.3947L38.5082 40.7427C38.3549 40.9045 38.3549 41.1676 38.5082 41.3295L46.2917 49.5454C46.445 49.7072 46.6943 49.7072 46.8476 49.5454L49.0712 47.1982C49.2246 47.0364 49.2246 46.7733 49.0712 46.6106L41.2878 38.3938C41.2107 38.3142 41.1108 38.2735 41.0102 38.2735Z" fill="white"/>
<path d="M48.0876 46.5741C47.987 46.5741 47.8863 46.5334 47.8093 46.4529L41.6935 39.9974C41.5402 39.8355 41.5402 39.5724 41.6935 39.4106C41.8468 39.2487 42.0961 39.2487 42.2494 39.4106L48.3652 45.8661C48.5185 46.0279 48.5185 46.291 48.3652 46.4529C48.2881 46.5334 48.1875 46.5741 48.0876 46.5741Z" fill="white"/>
<path d="M28.3501 40.9526C35.2982 40.9526 40.9308 35.0072 40.9308 27.6731C40.9308 20.339 35.2982 14.3935 28.3501 14.3935C21.402 14.3935 15.7695 20.339 15.7695 27.6731C15.7695 35.0072 21.402 40.9526 28.3501 40.9526Z" fill="white"/>
<path d="M28.3501 41.3676C21.1965 41.3676 15.3764 35.2242 15.3764 27.6731C15.3764 20.122 21.1965 13.9785 28.3501 13.9785C35.5038 13.9785 41.3239 20.122 41.3239 27.6731C41.3239 30.7465 40.382 33.6505 38.5987 36.0716C38.4642 36.2525 38.2173 36.284 38.0475 36.1438C37.8761 36.0035 37.8446 35.7429 37.9783 35.562C39.6523 33.2887 40.5376 30.5605 40.5376 27.6731C40.5376 20.5793 35.0706 14.8085 28.3501 14.8085C21.6297 14.8085 16.1626 20.5793 16.1626 27.6731C16.1626 34.7669 21.6297 40.5377 28.3501 40.5377C31.5165 40.5377 34.5178 39.2612 36.7988 36.9439C36.9545 36.7862 37.2038 36.7895 37.3547 36.9555C37.5049 37.1207 37.501 37.3838 37.3437 37.5423C34.9157 40.009 31.7218 41.3676 28.3501 41.3676Z" fill="white"/>
<path d="M28.3501 38.8777C34.2126 38.8777 38.9651 33.8612 38.9651 27.6731C38.9651 21.4849 34.2126 16.4684 28.3501 16.4684C22.4877 16.4684 17.7352 21.4849 17.7352 27.6731C17.7352 33.8612 22.4877 38.8777 28.3501 38.8777Z" fill="#071A3B"/>
<path d="M28.3502 39.2927C22.28 39.2927 17.3421 34.0805 17.3421 27.6731C17.3421 21.2657 22.28 16.0535 28.3502 16.0535C34.4203 16.0535 39.3582 21.2657 39.3582 27.6731C39.3582 34.0805 34.4203 39.2927 28.3502 39.2927ZM28.3502 16.8834C22.714 16.8834 18.1284 21.7238 18.1284 27.6731C18.1284 33.6223 22.714 38.4627 28.3502 38.4627C33.9863 38.4627 38.5719 33.6223 38.5719 27.6731C38.5719 21.7238 33.9863 16.8834 28.3502 16.8834Z" fill="white"/>
<path d="M27.6637 19.4032C27.4608 19.4032 27.2886 19.2389 27.2729 19.0223C27.2556 18.794 27.4168 18.5932 27.6322 18.5749C27.8697 18.5542 28.1079 18.5434 28.3501 18.5434C28.5671 18.5434 28.7433 18.7293 28.7433 18.9584C28.7433 19.1875 28.5671 19.3734 28.3501 19.3734C28.13 19.3734 27.9122 19.3833 27.6967 19.4016C27.6849 19.4024 27.6747 19.4032 27.6637 19.4032Z" fill="white"/>
<path d="M20.0941 28.0881C19.8771 28.0881 19.701 27.9021 19.701 27.6731C19.701 23.8179 22.0111 20.3602 25.4511 19.0687C25.6563 18.9907 25.8812 19.1044 25.9535 19.3211C26.0267 19.5369 25.9197 19.7742 25.7153 19.8514C22.5882 21.025 20.4872 24.1681 20.4872 27.6731C20.4872 27.9021 20.3111 28.0881 20.0941 28.0881Z" fill="white"/>
</g>
<circle cx="32.5" cy="32.5" r="31.5" stroke="white" stroke-width="2"/>
<defs>
<clipPath id="clip0_215_392">
<rect width="37.7419" height="39.8387" fill="white" transform="translate(13.9785 13.9785)"/>
</clipPath>
</defs>
</svg>
