<?xml version="1.0" encoding="UTF-8"?><svg xmlns="http://www.w3.org/2000/svg" xmlns:xlink="http://www.w3.org/1999/xlink" width="375" zoomAndPan="magnify" viewBox="0 0 375 374.999991" height="374.999991" preserveAspectRatio="xMidYMid meet" version="1.0"><defs><clipPath id="clip-0"><path d="M 111.132812 95.839844 L 186 95.839844 L 186 157 L 111.132812 157 Z M 111.132812 95.839844 " clip-rule="nonzero"/></clipPath><clipPath id="clip-1"><path d="M 111.132812 143 L 186 143 L 186 217.339844 L 111.132812 217.339844 Z M 111.132812 143 " clip-rule="nonzero"/></clipPath><clipPath id="clip-2"><path d="M 111.132812 157.503906 L 186 157.503906 L 186 219 L 111.132812 219 Z M 111.132812 157.503906 " clip-rule="nonzero"/></clipPath><clipPath id="clip-3"><path d="M 111.132812 204 L 186 204 L 186 279.003906 L 111.132812 279.003906 Z M 111.132812 204 " clip-rule="nonzero"/></clipPath><clipPath id="clip-4"><path d="M 189 218 L 263.859375 218 L 263.859375 279.15625 L 189 279.15625 Z M 189 218 " clip-rule="nonzero"/></clipPath><clipPath id="clip-5"><path d="M 189 157.65625 L 263.859375 157.65625 L 263.859375 232 L 189 232 Z M 189 157.65625 " clip-rule="nonzero"/></clipPath></defs><path stroke-linecap="round" transform="matrix(1.50279, 0, 0, 1.714286, 112.638806, 125.637414)" fill="none" stroke-linejoin="miter" d="M 0.500282 -0.00040565 L 100.317245 -0.00040565 " stroke="rgb(100%, 100%, 100%)" stroke-width="1" stroke-opacity="1" stroke-miterlimit="4"/><path stroke-linecap="round" transform="matrix(1.50455, 0, 0, 1.714286, 126.798351, 197.964597)" fill="none" stroke-linejoin="miter" d="M 0.500103 0.000144171 L 61.315631 0.000144171 " stroke="rgb(100%, 100%, 100%)" stroke-width="1" stroke-opacity="1" stroke-miterlimit="4"/><path stroke-linecap="round" transform="matrix(1.498658, 0, 0, 1.714286, 115.099627, 188.995418)" fill="none" stroke-linejoin="miter" d="M 0.499133 0.000394194 L 78.07377 0.000394194 " stroke="rgb(100%, 100%, 100%)" stroke-width="1" stroke-opacity="1" stroke-miterlimit="4"/><path stroke-linecap="round" transform="matrix(1.502478, 0, 0, 1.714286, 126.798351, 179.305769)" fill="none" stroke-linejoin="miter" d="M 0.500793 -0.00063089 L 89.354013 -0.00063089 " stroke="rgb(100%, 100%, 100%)" stroke-width="1" stroke-opacity="1" stroke-miterlimit="4"/><path stroke-linecap="round" transform="matrix(1.498919, 0, 0, 1.714286, 153.343252, 170.54659)" fill="none" stroke-linejoin="miter" d="M 0.500693 0.000166016 L 64.55206 0.000166016 " stroke="rgb(100%, 100%, 100%)" stroke-width="1" stroke-opacity="1" stroke-miterlimit="4"/><path stroke-linecap="round" transform="matrix(1.525424, 0, 0, 1.714286, 174.475378, 152.891474)" fill="none" stroke-linejoin="miter" d="M 0.500126 -0.000495227 L 14.251429 -0.000495227 " stroke="rgb(100%, 100%, 100%)" stroke-width="1" stroke-opacity="1" stroke-miterlimit="4"/><path stroke-linecap="round" transform="matrix(1.502134, 0, 0, 1.714286, 171.107, 162.239989)" fill="none" stroke-linejoin="miter" d="M 0.500871 -0.000996389 L 26.968431 -0.000996389 " stroke="rgb(100%, 100%, 100%)" stroke-width="1" stroke-opacity="1" stroke-miterlimit="4"/><path stroke-linecap="round" transform="matrix(1.501456, 0, 0, 1.714286, 142.267438, 134.735734)" fill="none" stroke-linejoin="miter" d="M 0.50091 -0.000792956 L 71.934179 -0.000792956 " stroke="rgb(100%, 100%, 100%)" stroke-width="1" stroke-opacity="1" stroke-miterlimit="4"/><path stroke-linecap="round" transform="matrix(1.496695, 0, 0, 1.714286, 143.155425, 143.610108)" fill="none" stroke-linejoin="miter" d="M 0.499045 -0.000427682 L 45.603621 -0.000427682 " stroke="rgb(100%, 100%, 100%)" stroke-width="1" stroke-opacity="1" stroke-miterlimit="4"/><path stroke-linecap="round" transform="matrix(1.497076, 0, 0, 1.714286, 112.638806, 116.264054)" fill="none" stroke-linejoin="miter" d="M 0.499582 0.000916437 L 91.687759 0.000916437 " stroke="rgb(100%, 100%, 100%)" stroke-width="1" stroke-opacity="1" stroke-miterlimit="4"/><g clip-path="url(#clip-0)"><path fill="rgb(100%, 100%, 100%)" d="M 185.921875 143.324219 L 153.707031 156.589844 L 70.628906 122.375 L 70.628906 95.839844 L 185.921875 143.324219 " fill-opacity="1" fill-rule="nonzero"/></g><g clip-path="url(#clip-1)"><path fill="rgb(88.238525%, 9.799194%, 33.329773%)" d="M 185.921875 143.324219 L 185.921875 169.855469 L 70.628906 217.339844 L 70.628906 190.804688 L 153.707031 156.589844 L 185.921875 169.855469 L 185.921875 143.324219 " fill-opacity="1" fill-rule="nonzero"/></g><path fill="rgb(97.24884%, 29.798889%, 50.19989%)" d="M 185.921875 143.324219 L 185.921875 169.855469 L 153.707031 156.589844 L 185.921875 143.324219 " fill-opacity="1" fill-rule="nonzero"/><g clip-path="url(#clip-2)"><path fill="rgb(100%, 100%, 100%)" d="M 185.921875 204.988281 L 153.707031 218.253906 L 70.628906 184.039062 L 70.628906 157.503906 L 185.921875 204.988281 " fill-opacity="1" fill-rule="nonzero"/></g><g clip-path="url(#clip-3)"><path fill="rgb(88.238525%, 9.799194%, 33.329773%)" d="M 185.921875 204.988281 L 185.921875 231.519531 L 70.628906 279.003906 L 70.628906 252.46875 L 153.707031 218.253906 L 185.921875 231.519531 L 185.921875 204.988281 " fill-opacity="1" fill-rule="nonzero"/></g><path fill="rgb(97.24884%, 29.798889%, 50.19989%)" d="M 185.921875 204.988281 L 185.921875 231.519531 L 153.707031 218.253906 L 185.921875 204.988281 " fill-opacity="1" fill-rule="nonzero"/><g clip-path="url(#clip-4)"><path fill="rgb(100%, 100%, 100%)" d="M 189.070312 231.671875 L 221.285156 218.40625 L 304.363281 252.621094 L 304.363281 279.15625 L 189.070312 231.671875 " fill-opacity="1" fill-rule="nonzero"/></g><g clip-path="url(#clip-5)"><path fill="rgb(9.408569%, 54.899597%, 92.158508%)" d="M 189.070312 231.671875 L 189.070312 205.140625 L 304.363281 157.65625 L 304.363281 184.191406 L 221.285156 218.40625 L 189.070312 205.140625 L 189.070312 231.671875 " fill-opacity="1" fill-rule="nonzero"/></g><path fill="rgb(28.62854%, 64.309692%, 93.728638%)" d="M 189.070312 231.671875 L 189.070312 205.140625 L 221.285156 218.40625 L 189.070312 231.671875 " fill-opacity="1" fill-rule="nonzero"/></svg>