<?xml version="1.0" encoding="UTF-8"?><svg xmlns="http://www.w3.org/2000/svg" xmlns:xlink="http://www.w3.org/1999/xlink" width="375" zoomAndPan="magnify" viewBox="0 0 375 374.999991" height="374.999991" preserveAspectRatio="xMidYMid meet" version="1.0"><defs><clipPath id="clip-0"><path d="M 109.777344 94.117188 L 185.449219 94.117188 L 185.449219 156 L 109.777344 156 Z M 109.777344 94.117188 " clip-rule="nonzero"/></clipPath><clipPath id="clip-1"><path d="M 109.777344 142 L 185.449219 142 L 185.449219 217.867188 L 109.777344 217.867188 Z M 109.777344 142 " clip-rule="nonzero"/></clipPath><clipPath id="clip-2"><path d="M 152 142 L 185.449219 142 L 185.449219 170 L 152 170 Z M 152 142 " clip-rule="nonzero"/></clipPath><clipPath id="clip-3"><path d="M 109.777344 156.871094 L 185.449219 156.871094 L 185.449219 219 L 109.777344 219 Z M 109.777344 156.871094 " clip-rule="nonzero"/></clipPath><clipPath id="clip-4"><path d="M 109.777344 205 L 185.449219 205 L 185.449219 280.621094 L 109.777344 280.621094 Z M 109.777344 205 " clip-rule="nonzero"/></clipPath><clipPath id="clip-5"><path d="M 152 205 L 185.449219 205 L 185.449219 233 L 152 233 Z M 152 205 " clip-rule="nonzero"/></clipPath><clipPath id="clip-6"><path d="M 189.539062 219 L 265.210938 219 L 265.210938 280.878906 L 189.539062 280.878906 Z M 189.539062 219 " clip-rule="nonzero"/></clipPath><clipPath id="clip-7"><path d="M 189.539062 157.128906 L 265.210938 157.128906 L 265.210938 233 L 189.539062 233 Z M 189.539062 157.128906 " clip-rule="nonzero"/></clipPath><clipPath id="clip-8"><path d="M 189.539062 205 L 223 205 L 223 233 L 189.539062 233 Z M 189.539062 205 " clip-rule="nonzero"/></clipPath></defs><path stroke-linecap="round" transform="matrix(2.247773, 0, 0, 2.526316, 111.313209, 124.932825)" fill="none" stroke-linejoin="miter" d="M 0.50018 0.000304457 L 67.901968 0.000304457 " stroke="rgb(8.239746%, 13.729858%, 23.529053%)" stroke-width="1" stroke-opacity="1" stroke-miterlimit="4"/><path stroke-linecap="round" transform="matrix(2.253353, 0, 0, 2.526316, 125.723478, 198.540748)" fill="none" stroke-linejoin="miter" d="M 0.500625 -0.000667083 L 41.439613 -0.000667083 " stroke="rgb(8.239746%, 13.729858%, 23.529053%)" stroke-width="1" stroke-opacity="1" stroke-miterlimit="4"/><path stroke-linecap="round" transform="matrix(2.251099, 0, 0, 2.526316, 113.817602, 189.412723)" fill="none" stroke-linejoin="miter" d="M 0.499225 0.000530313 L 52.810481 0.000530313 " stroke="rgb(8.239746%, 13.729858%, 23.529053%)" stroke-width="1" stroke-opacity="1" stroke-miterlimit="4"/><path stroke-linecap="round" transform="matrix(2.251538, 0, 0, 2.526316, 125.723478, 179.551452)" fill="none" stroke-linejoin="miter" d="M 0.499294 -0.000265588 L 60.463515 -0.000265588 " stroke="rgb(8.239746%, 13.729858%, 23.529053%)" stroke-width="1" stroke-opacity="1" stroke-miterlimit="4"/><path stroke-linecap="round" transform="matrix(2.243361, 0, 0, 2.526316, 152.738433, 170.637236)" fill="none" stroke-linejoin="miter" d="M 0.499671 -0.000204743 L 43.635629 -0.000204743 " stroke="rgb(8.239746%, 13.729858%, 23.529053%)" stroke-width="1" stroke-opacity="1" stroke-miterlimit="4"/><path stroke-linecap="round" transform="matrix(2.248829, 0, 0, 2.526316, 174.24474, 152.669462)" fill="none" stroke-linejoin="miter" d="M 0.500862 -0.000591068 L 9.509024 -0.000591068 " stroke="rgb(8.239746%, 13.729858%, 23.529053%)" stroke-width="1" stroke-opacity="1" stroke-miterlimit="4"/><path stroke-linecap="round" transform="matrix(2.253773, 0, 0, 2.526316, 170.816727, 162.183388)" fill="none" stroke-linejoin="miter" d="M 0.500754 0.0000815417 L 18.136114 0.0000815417 " stroke="rgb(8.239746%, 13.729858%, 23.529053%)" stroke-width="1" stroke-opacity="1" stroke-miterlimit="4"/><path stroke-linecap="round" transform="matrix(2.243561, 0, 0, 2.526316, 141.46649, 134.192101)" fill="none" stroke-linejoin="miter" d="M 0.500701 -0.000274921 L 48.645421 -0.000274921 " stroke="rgb(8.239746%, 13.729858%, 23.529053%)" stroke-width="1" stroke-opacity="1" stroke-miterlimit="4"/><path stroke-linecap="round" transform="matrix(2.254121, 0, 0, 2.526316, 142.370196, 143.223682)" fill="none" stroke-linejoin="miter" d="M 0.499484 -0.000405945 L 30.77909 -0.000405945 " stroke="rgb(8.239746%, 13.729858%, 23.529053%)" stroke-width="1" stroke-opacity="1" stroke-miterlimit="4"/><path stroke-linecap="round" transform="matrix(2.254497, 0, 0, 2.526316, 111.313209, 115.393528)" fill="none" stroke-linejoin="miter" d="M 0.500421 0.000396953 L 62.045817 0.000396953 " stroke="rgb(8.239746%, 13.729858%, 23.529053%)" stroke-width="1" stroke-opacity="1" stroke-miterlimit="4"/><g clip-path="url(#clip-0)"><path fill="rgb(2.749634%, 10.198975%, 23.139954%)" d="M 185.339844 142.480469 L 152.710938 155.992188 L 68.5625 121.144531 L 68.5625 94.117188 L 185.339844 142.480469 " fill-opacity="1" fill-rule="nonzero"/></g><g clip-path="url(#clip-1)"><path fill="rgb(88.238525%, 9.799194%, 33.329773%)" d="M 185.339844 142.480469 L 185.339844 169.503906 L 68.5625 217.867188 L 68.5625 190.839844 L 152.710938 155.992188 L 185.339844 169.503906 L 185.339844 142.480469 " fill-opacity="1" fill-rule="nonzero"/></g><g clip-path="url(#clip-2)"><path fill="rgb(56.079102%, 4.708862%, 23.529053%)" d="M 185.339844 142.480469 L 185.339844 169.503906 L 152.710938 155.992188 L 185.339844 142.480469 " fill-opacity="1" fill-rule="nonzero"/></g><g clip-path="url(#clip-3)"><path fill="rgb(2.749634%, 10.198975%, 23.139954%)" d="M 185.339844 205.234375 L 152.710938 218.746094 L 68.5625 183.898438 L 68.5625 156.871094 L 185.339844 205.234375 " fill-opacity="1" fill-rule="nonzero"/></g><g clip-path="url(#clip-4)"><path fill="rgb(88.238525%, 9.799194%, 33.329773%)" d="M 185.339844 205.234375 L 185.339844 232.257812 L 68.5625 280.621094 L 68.5625 253.59375 L 152.710938 218.746094 L 185.339844 232.257812 L 185.339844 205.234375 " fill-opacity="1" fill-rule="nonzero"/></g><g clip-path="url(#clip-5)"><path fill="rgb(56.079102%, 4.708862%, 23.529053%)" d="M 185.339844 205.234375 L 185.339844 232.257812 L 152.710938 218.746094 L 185.339844 205.234375 " fill-opacity="1" fill-rule="nonzero"/></g><g clip-path="url(#clip-6)"><path fill="rgb(2.749634%, 10.198975%, 23.139954%)" d="M 189.648438 232.515625 L 222.277344 219.003906 L 306.425781 253.851562 L 306.425781 280.878906 L 189.648438 232.515625 " fill-opacity="1" fill-rule="nonzero"/></g><g clip-path="url(#clip-7)"><path fill="rgb(9.408569%, 54.899597%, 92.158508%)" d="M 189.648438 232.515625 L 189.648438 205.492188 L 306.425781 157.128906 L 306.425781 184.15625 L 222.277344 219.003906 L 189.648438 205.492188 L 189.648438 232.515625 " fill-opacity="1" fill-rule="nonzero"/></g><g clip-path="url(#clip-8)"><path fill="rgb(4.708862%, 28.239441%, 47.44873%)" d="M 189.648438 232.515625 L 189.648438 205.492188 L 222.277344 219.003906 L 189.648438 232.515625 " fill-opacity="1" fill-rule="nonzero"/></g></svg>